<svg id="Capa_1" enable-background="new 0 0 512 512" height="512" viewBox="0 0 512 512" width="512" xmlns="http://www.w3.org/2000/svg"><g><g><g><path d="m402.249 222.998c-34.841 0-65.605 17.43-84.066 44.041 9.623-38.279-.528-80.507-30.467-110.445-45.313-45.313-118.781-45.313-164.094 0-10.896 10.896-19.165 23.423-24.821 36.793-52.343 12.346-91.301 59.356-91.301 115.47 0 65.524 53.118 118.642 118.642 118.642h276.107s102.251-45.779 102.251-102.25c0-56.472-45.779-102.251-102.251-102.251z" fill="#dbe8f9"/><g><path d="m402.249 222.998c-11.358 0-22.277 1.863-32.483 5.281 40.531 13.585 69.736 51.865 69.736 96.969 0 56.471-45.779 102.251-102.25 102.251h64.997c56.471 0 102.251-45.779 102.251-102.251 0-56.471-45.779-102.25-102.251-102.25z" fill="#c9e0fd"/></g><g><g><path d="m427.395 188.581c-.022-6.315-5.159-11.416-11.474-11.394h-.005c-4.9.017-9.269-3.088-10.851-7.725-1.436-4.208-3.159-8.339-5.17-12.364-2.185-4.376-1.317-9.66 2.129-13.131 4.449-4.481 4.424-11.72-.057-16.17l-18.424-18.296c-4.481-4.45-11.72-4.424-16.17.057-3.446 3.471-8.724 4.376-13.115 2.221-4.038-1.982-8.182-3.676-12.4-5.083-4.648-1.55-7.784-5.897-7.801-10.797v-.005c-.022-6.315-5.159-11.416-11.474-11.394l-25.965.091c-6.315.022-11.416 5.159-11.394 11.474v.005c.017 4.9-3.088 9.269-7.725 10.851-4.208 1.436-8.34 3.159-12.364 5.17-4.376 2.185-9.66 1.317-13.131-2.129-4.481-4.45-11.72-4.424-16.17.057l-18.296 18.424c-4.45 4.481-4.424 11.72.057 16.17 3.471 3.446 4.376 8.725 2.221 13.115-1.982 4.038-3.676 8.182-5.083 12.4-1.55 4.648-5.897 7.784-10.797 7.801h-.005c-6.315.022-11.416 5.159-11.394 11.474l.091 25.965c.022 6.315 5.159 11.416 11.474 11.394h.005c4.9-.017 9.269 3.088 10.851 7.725 1.436 4.208 3.159 8.339 5.169 12.364 2.185 4.376 1.318 9.66-2.129 13.131-4.45 4.481-4.424 11.72.057 16.17l18.424 18.296c4.481 4.45 11.72 4.424 16.17-.057 3.446-3.47 8.725-4.376 13.115-2.221 4.038 1.982 8.182 3.676 12.4 5.083 4.648 1.55 7.784 5.897 7.801 10.797v.005c.022 6.315 5.159 11.416 11.474 11.394l25.965-.091c6.315-.022 11.416-5.159 11.394-11.474v-.005c-.017-4.9 3.088-9.269 7.725-10.851 4.208-1.436 8.34-3.159 12.364-5.169 4.376-2.186 9.66-1.318 13.13 2.129 4.481 4.45 11.72 4.424 16.17-.057l18.296-18.424c4.45-4.481 4.424-11.72-.057-16.17-3.471-3.446-4.376-8.725-2.221-13.115 1.982-4.038 3.676-8.182 5.083-12.4 1.55-4.648 5.897-7.784 10.797-7.801h.005c6.315-.022 11.416-5.159 11.394-11.474z" fill="#9bc4f9"/></g></g><path d="m427.395 188.581c-.022-6.315-5.159-11.416-11.474-11.394h-.004c-4.9.017-9.269-3.088-10.851-7.725-1.436-4.208-3.159-8.34-5.17-12.364-2.185-4.376-1.317-9.66 2.129-13.131 4.45-4.481 4.424-11.72-.057-16.17l-18.424-18.296c-4.481-4.45-11.72-4.424-16.17.057-3.446 3.471-8.724 4.376-13.115 2.221-4.038-1.982-8.182-3.676-12.4-5.083-4.648-1.55-7.784-5.897-7.801-10.797v-.005c-.022-6.315-5.159-11.416-11.473-11.394l-25.965.091c-4.787.017-8.872 2.976-10.56 7.157 15.333 5.65 29.728 14.602 42.081 26.869 46.037 45.715 46.297 120.095.581 166.131-12.306 12.392-26.691 21.462-42.039 27.216 1.615 4.378 5.82 7.499 10.758 7.482l25.965-.091c6.315-.022 11.416-5.159 11.394-11.474v-.005c-.017-4.9 3.088-9.269 7.725-10.851 4.208-1.436 8.339-3.159 12.364-5.169 4.375-2.186 9.66-1.317 13.13 2.129 4.481 4.45 11.72 4.424 16.17-.057l18.296-18.424c4.45-4.481 4.424-11.72-.057-16.17-3.47-3.446-4.375-8.725-2.221-13.115 1.982-4.038 3.676-8.182 5.083-12.4 1.55-4.648 5.897-7.784 10.797-7.801h.005c6.314-.022 11.416-5.159 11.393-11.474z" fill="#7fb2f9"/></g><g><path d="m347.496 239.197c-20.557 20.702-54.005 20.819-74.706.261-20.702-20.557-20.819-54.005-.261-74.706 20.557-20.702 54.005-20.819 74.706-.261 20.702 20.556 20.819 54.004.261 74.706z" fill="#eaf2ff"/></g></g><g><g><path d="m185.039 189.429.091 25.965c.037 10.417 8.524 18.867 18.934 18.867h.119c1.668.015 3.142 1.073 3.679 2.647 1.548 4.536 3.418 9.008 5.559 13.292.745 1.493.447 3.3-.74 4.496-7.374 7.424-7.334 19.402.093 26.776l18.424 18.296c7.407 7.356 19.418 7.315 26.776-.093 1.19-1.197 2.994-1.506 4.489-.773 4.299 2.11 8.785 3.948 13.331 5.464 1.594.531 2.668 2.021 2.674 3.714.037 10.417 8.524 18.867 18.934 18.867h.067l25.965-.091c5.058-.018 9.805-2.004 13.368-5.592 3.564-3.589 5.517-8.351 5.499-13.413-.006-1.687 1.058-3.184 2.647-3.727 4.536-1.548 9.009-3.418 13.293-5.558 1.488-.746 3.298-.447 4.494.742 7.408 7.355 19.417 7.315 26.777-.094l18.296-18.425c7.355-7.408 7.313-19.419-.095-26.776-1.196-1.188-1.507-2.992-.771-4.49 2.11-4.302 3.948-8.787 5.464-13.331.531-1.593 2.021-2.667 3.713-2.673 5.058-.018 9.805-2.004 13.368-5.593 3.564-3.589 5.517-8.351 5.499-13.408l-.091-25.965c-.018-5.057-2.003-9.805-5.592-13.368-3.573-3.548-8.308-5.499-13.345-5.499-.026 0-.054-.002-.081 0-1.682 0-3.173-1.062-3.714-2.648-1.55-4.542-3.42-9.014-5.558-13.292-.745-1.491-.447-3.297.74-4.494 7.375-7.426 7.334-19.401-.093-26.777l-18.424-18.296c-7.419-7.366-19.403-7.332-26.777.094-1.188 1.196-2.991 1.507-4.488.772-4.296-2.108-8.781-3.947-13.332-5.464-1.593-.531-2.668-2.022-2.674-3.712-.036-10.431-8.487-18.869-18.932-18.869-.022 0-.045 0-.067 0l-25.965.091c-10.439.036-18.904 8.509-18.867 19.005.006 1.687-1.058 3.184-2.647 3.727-4.54 1.549-9.012 3.419-13.293 5.558-1.491.745-3.299.446-4.494-.741-7.408-7.357-19.418-7.315-26.776.093l-18.297 18.424c-7.355 7.408-7.313 19.42.094 26.776 1.197 1.188 1.508 2.992.772 4.49-2.109 4.299-3.947 8.784-5.465 13.331-.531 1.593-2.021 2.668-3.712 2.674-10.44.037-18.904 8.56-18.869 19.001zm18.926-4c8.128-.029 15.315-5.225 17.884-12.928 1.306-3.912 2.887-7.771 4.701-11.469 3.572-7.277 2.099-16.015-3.668-21.742-1.54-1.528-1.548-4.024-.021-5.563l18.296-18.423c1.53-1.541 4.024-1.548 5.564-.02 5.767 5.727 14.513 7.14 21.768 3.516 3.682-1.839 7.528-3.448 11.433-4.78 7.688-2.623 12.833-9.847 12.804-17.981-.008-2.168 1.741-3.94 3.92-3.947l25.964-.092h.014c2.151 0 3.925 1.732 3.934 3.926.029 8.129 5.226 15.316 12.929 17.885 3.915 1.306 7.773 2.887 11.468 4.7 7.278 3.573 16.016 2.097 21.742-3.668 1.53-1.541 4.02-1.551 5.562-.02l18.425 18.296c1.54 1.53 1.555 4.016.019 5.563-5.726 5.767-7.139 14.514-3.516 21.767 1.839 3.68 3.447 7.527 4.78 11.434 2.615 7.666 9.807 12.804 17.913 12.804.027 0 .052-.001.081 0 1.046 0 2.03.405 2.772 1.143.745.74 1.157 1.726 1.161 2.776v.001l.091 25.965c.004 1.05-.402 2.04-1.143 2.786s-1.727 1.158-2.781 1.162c-8.129.028-15.317 5.224-17.887 12.929-1.303 3.909-2.885 7.768-4.699 11.467-3.573 7.278-2.099 16.016 3.668 21.742 1.539 1.528 1.548 4.024.02 5.563l-18.295 18.424c-1.528 1.539-4.023 1.549-5.563.02-5.765-5.726-14.513-7.14-21.768-3.517-3.685 1.841-7.532 3.449-11.434 4.781-7.688 2.623-12.833 9.847-12.804 17.981.004 1.05-.402 2.039-1.143 2.785s-1.727 1.158-2.777 1.162l-25.965.091c-.005 0-.009 0-.014 0-2.163 0-3.927-1.756-3.935-3.924-.027-8.129-5.223-15.317-12.929-17.887-3.911-1.304-7.77-2.886-11.467-4.701-7.302-3.582-16.034-2.079-21.741 3.668-1.53 1.54-4.024 1.548-5.564.02l-18.424-18.296c-1.54-1.527-1.555-4.016-.019-5.563 5.725-5.766 7.138-14.512 3.516-21.768-1.842-3.686-3.45-7.533-4.78-11.434-2.615-7.666-9.807-12.804-17.909-12.804-.04 0-.078 0-.119 0-2.147-.019-3.893-1.768-3.9-3.92l-.091-25.964c-.007-2.167 1.752-3.939 3.927-3.946z"/><path d="m352.818 244.481c23.491-23.656 23.363-61.816-.298-85.312-23.605-23.44-61.877-23.305-85.314.298-23.438 23.604-23.304 61.875.3 85.313 23.633 23.469 61.818 23.362 85.312-.299zm-74.968-74.445c17.612-17.735 46.368-17.834 64.101-.224 17.776 17.651 17.878 46.322.224 64.1-17.632 17.757-46.322 17.878-64.099.225-17.735-17.611-17.836-46.366-.226-64.101z"/><path d="m459.922 231.863c-3.523-2.18-8.145-1.091-10.324 2.432s-1.091 8.145 2.432 10.324c28.158 17.422 44.97 47.564 44.97 80.63 0 52.246-42.505 94.75-94.751 94.75h-276.106c-61.285.001-111.143-49.858-111.143-111.142 0-53.563 37.493-96.842 85.522-108.171 2.328-.549 4.254-2.175 5.186-4.377 13.944-32.959 43.956-57.997 80.98-64.536 4.079-.72 6.802-4.611 6.081-8.69-.72-4.079-4.607-6.8-8.69-6.082-41.593 7.346-74.543 34.924-90.662 70.009-54.728 14.696-93.417 64.493-93.417 121.847 0 69.555 56.587 126.143 126.143 126.143h276.106c60.517 0 109.751-49.234 109.751-109.751 0-38.3-19.469-73.21-52.078-93.386z"/></g></g></g></svg>