<svg id="svg" version="1.1" xmlns="http://www.w3.org/2000/svg" xmlns:xlink="http://www.w3.org/1999/xlink" width="400" height="95.23809523809524" viewBox="0, 0, 400,95.23809523809524"><g id="svgg"><path id="path0" d="M222.444 19.778 C 222.383 19.839,222.333 25.126,222.333 31.528 L 222.333 43.167 221.947 43.167 C 221.734 43.167,221.265 42.915,220.905 42.607 C 219.721 41.594,218.136 40.703,215.250 39.428 C 214.778 39.220,213.980 38.977,211.958 38.429 C 209.637 37.800,205.215 37.505,203.000 37.831 C 202.221 37.946,201.208 38.091,200.750 38.154 C 200.292 38.218,199.617 38.368,199.250 38.489 C 198.883 38.610,198.246 38.818,197.833 38.951 C 192.419 40.697,186.383 45.640,184.155 50.152 C 183.947 50.572,183.733 50.954,183.680 51.000 C 183.627 51.046,183.444 51.383,183.273 51.750 C 183.103 52.117,182.887 52.562,182.795 52.739 C 182.702 52.916,182.566 53.253,182.492 53.489 C 182.419 53.724,182.201 54.329,182.008 54.833 C 180.163 59.657,179.958 66.485,181.480 72.423 C 181.837 73.814,183.389 77.537,183.792 77.968 C 183.906 78.090,184.000 78.254,184.000 78.331 C 184.000 78.496,185.630 80.940,186.388 81.912 C 186.945 82.627,189.849 85.499,190.016 85.500 C 190.070 85.500,190.333 85.691,190.599 85.925 C 192.608 87.686,197.053 89.837,199.750 90.353 C 200.117 90.423,200.792 90.571,201.250 90.682 C 202.618 91.012,208.956 90.959,210.583 90.603 C 212.612 90.160,213.860 89.827,214.464 89.568 C 214.765 89.439,215.085 89.333,215.176 89.333 C 215.738 89.333,219.170 87.400,220.711 86.215 C 222.125 85.128,222.233 85.208,222.333 87.418 L 222.417 89.250 228.554 89.396 C 232.967 89.501,234.804 89.491,235.095 89.358 L 235.500 89.174 235.500 54.684 C 235.500 35.714,235.454 20.075,235.399 19.930 C 235.293 19.655,222.715 19.507,222.444 19.778 M10.219 50.792 C 10.278 76.670,10.293 77.067,11.318 79.417 C 11.398 79.600,11.702 80.320,11.993 81.016 C 13.381 84.334,16.029 87.107,19.417 88.793 C 21.258 89.709,22.193 90.047,23.667 90.333 C 24.079 90.414,24.754 90.554,25.167 90.645 C 27.179 91.090,33.416 91.011,35.055 90.520 C 35.646 90.343,36.786 90.050,37.667 89.847 C 37.987 89.774,38.475 89.617,38.750 89.500 C 39.025 89.383,39.512 89.180,39.833 89.051 C 40.154 88.921,40.616 88.707,40.859 88.574 C 41.102 88.442,41.385 88.333,41.487 88.333 C 41.737 88.333,43.001 87.528,42.995 87.373 C 42.992 87.305,42.550 86.783,42.013 86.212 C 41.143 85.286,38.900 82.324,38.390 81.424 C 37.995 80.729,37.000 78.649,37.000 78.519 C 37.000 78.142,36.376 77.835,35.903 77.980 C 30.026 79.779,26.133 78.868,24.326 75.272 C 23.842 74.308,23.685 73.792,23.334 72.000 C 23.094 70.780,23.125 50.275,23.367 50.033 C 23.516 49.884,25.281 49.833,30.283 49.833 L 37.000 49.833 37.000 44.500 L 37.000 39.167 30.283 39.167 C 25.281 39.167,23.516 39.116,23.367 38.967 C 23.219 38.819,23.167 37.219,23.167 32.800 L 23.167 26.833 16.666 26.833 L 10.164 26.833 10.219 50.792 M293.272 27.208 C 293.044 28.059,293.181 72.011,293.418 74.167 C 293.663 76.388,294.003 78.227,294.208 78.431 C 294.277 78.500,294.333 78.704,294.333 78.885 C 294.333 79.743,296.253 83.490,297.331 84.735 C 298.482 86.065,301.175 88.333,301.603 88.333 C 301.669 88.333,301.842 88.433,301.987 88.555 C 302.132 88.677,302.662 88.944,303.167 89.148 C 303.671 89.351,304.233 89.580,304.417 89.656 C 308.039 91.160,315.838 91.411,319.417 90.140 C 319.692 90.042,320.129 89.924,320.388 89.877 C 321.139 89.741,321.098 89.401,320.225 88.544 C 319.281 87.618,318.500 86.718,318.500 86.556 C 318.500 86.494,318.394 86.325,318.265 86.180 C 317.518 85.342,315.862 81.411,315.574 79.790 C 315.435 79.010,315.316 78.937,314.263 78.979 C 310.628 79.126,308.014 77.320,306.801 73.825 C 306.358 72.548,306.089 50.578,306.511 50.070 C 306.675 49.873,307.833 49.833,313.517 49.833 L 320.327 49.833 320.419 49.458 C 320.469 49.252,320.489 46.871,320.463 44.167 L 320.417 39.250 313.598 39.206 C 308.903 39.176,306.710 39.105,306.556 38.978 C 306.378 38.830,306.333 37.648,306.333 33.077 C 306.333 29.933,306.288 27.242,306.232 27.097 C 306.142 26.863,305.415 26.833,299.752 26.833 L 293.372 26.833 293.272 27.208 M63.417 37.746 C 63.325 37.775,62.575 37.885,61.750 37.990 C 60.925 38.096,59.875 38.286,59.417 38.413 C 58.958 38.539,58.133 38.766,57.583 38.917 C 56.007 39.348,53.082 40.647,51.750 41.507 C 51.475 41.684,51.137 41.883,51.000 41.948 C 50.862 42.013,50.675 42.124,50.583 42.195 C 48.847 43.532,48.192 44.101,46.998 45.311 C 44.333 48.015,42.359 51.091,41.260 54.250 C 41.101 54.708,40.911 55.199,40.839 55.340 C 40.767 55.481,40.655 55.912,40.589 56.297 C 40.524 56.683,40.403 57.041,40.319 57.092 C 40.235 57.144,40.167 57.468,40.167 57.813 C 40.167 58.158,40.043 58.847,39.891 59.345 C 39.488 60.670,39.488 68.330,39.891 69.655 C 40.043 70.153,40.167 70.805,40.167 71.104 C 40.167 71.403,40.237 71.691,40.324 71.744 C 40.410 71.797,40.531 72.178,40.593 72.589 C 40.655 73.001,40.771 73.378,40.853 73.429 C 40.934 73.479,41.000 73.635,41.000 73.776 C 41.000 74.147,42.694 77.803,43.380 78.913 C 44.608 80.901,48.652 85.500,49.173 85.500 C 49.233 85.500,49.463 85.658,49.683 85.852 C 50.387 86.470,51.869 87.365,53.583 88.207 C 54.500 88.657,55.380 89.094,55.539 89.179 C 55.699 89.264,55.912 89.333,56.014 89.333 C 56.116 89.333,56.436 89.436,56.725 89.562 C 57.306 89.816,58.560 90.157,60.583 90.611 C 62.157 90.965,68.749 91.008,70.333 90.675 C 70.837 90.569,71.587 90.422,72.000 90.348 C 72.955 90.176,74.319 89.830,74.750 89.649 C 74.933 89.573,75.544 89.354,76.107 89.165 C 81.293 87.417,86.222 82.950,89.125 77.367 C 90.045 75.598,90.225 75.785,86.917 75.086 C 86.183 74.931,85.246 74.725,84.833 74.628 C 84.421 74.531,83.746 74.390,83.333 74.315 C 82.612 74.183,81.078 73.863,79.500 73.514 C 78.300 73.248,78.298 73.249,77.583 74.240 C 74.772 78.138,70.928 80.000,65.692 80.000 C 64.499 80.000,61.841 79.558,61.592 79.319 C 61.505 79.235,61.319 79.167,61.179 79.167 C 60.804 79.167,58.644 78.051,58.076 77.564 C 56.544 76.249,55.167 74.801,55.167 74.504 C 55.167 74.410,55.103 74.333,55.025 74.333 C 54.516 74.333,52.598 69.499,52.697 68.467 L 52.750 67.917 71.833 67.833 C 82.329 67.787,91.010 67.689,91.125 67.615 C 91.435 67.415,91.404 62.182,91.083 60.346 C 90.747 58.431,90.323 56.492,90.149 56.083 C 90.071 55.900,89.885 55.375,89.736 54.917 C 88.615 51.480,86.477 47.995,83.876 45.366 C 82.598 44.074,80.168 42.000,79.933 42.000 C 79.866 42.000,79.572 41.825,79.281 41.610 C 78.817 41.270,78.400 41.037,77.054 40.367 C 76.887 40.284,76.450 40.085,76.083 39.925 C 75.717 39.764,75.192 39.535,74.917 39.415 C 73.872 38.959,71.223 38.243,70.000 38.085 C 69.587 38.032,68.762 37.919,68.167 37.833 C 67.160 37.689,63.793 37.627,63.417 37.746 M96.673 39.489 C 96.556 39.707,96.500 47.795,96.500 64.483 L 96.500 89.155 96.871 89.353 C 97.248 89.555,109.285 89.438,109.492 89.230 C 109.542 89.180,109.595 85.264,109.609 80.528 C 109.635 71.915,109.807 67.496,110.151 66.614 C 110.251 66.356,110.333 65.906,110.333 65.614 C 110.332 65.322,110.436 64.746,110.564 64.333 C 110.693 63.921,110.921 63.171,111.073 62.667 C 112.363 58.385,114.874 54.751,117.750 53.006 C 118.117 52.783,118.454 52.558,118.500 52.507 C 118.626 52.364,120.441 51.507,121.225 51.221 C 122.538 50.741,123.924 50.475,126.000 50.303 C 128.765 50.075,128.500 50.673,128.500 44.652 C 128.500 38.644,128.661 39.085,126.562 39.329 C 125.840 39.413,124.800 39.528,124.250 39.584 C 121.321 39.884,117.387 41.458,114.840 43.349 C 113.554 44.304,111.514 46.290,110.748 47.333 C 109.822 48.594,109.760 48.381,109.657 43.583 C 109.606 41.200,109.549 39.231,109.532 39.208 C 109.323 38.935,96.823 39.208,96.673 39.489 M135.772 39.586 C 135.557 40.147,135.653 49.805,135.875 49.948 C 135.990 50.023,139.470 50.063,143.610 50.038 C 152.593 49.985,156.562 50.165,158.141 50.699 C 160.967 51.653,162.750 53.959,162.957 56.927 C 163.090 58.821,163.913 58.667,153.706 58.667 C 143.681 58.667,143.270 58.702,139.041 59.940 C 138.514 60.094,137.971 60.274,137.833 60.340 C 137.696 60.406,137.208 60.633,136.750 60.843 C 124.639 66.408,125.107 84.065,137.500 89.142 C 138.004 89.349,138.567 89.578,138.750 89.652 C 143.181 91.439,150.995 91.391,155.917 89.547 C 156.283 89.410,156.782 89.193,157.026 89.065 C 157.269 88.938,157.588 88.833,157.734 88.833 C 157.880 88.833,158.000 88.773,158.000 88.699 C 158.000 88.625,158.302 88.431,158.671 88.268 C 159.040 88.105,159.952 87.509,160.697 86.944 C 161.442 86.379,162.143 85.848,162.253 85.765 C 162.819 85.340,163.000 85.773,163.000 87.552 L 163.000 89.280 168.845 89.382 C 172.332 89.442,174.855 89.420,175.099 89.327 L 175.509 89.172 175.441 71.877 C 175.368 53.200,175.342 52.665,174.375 50.083 C 173.415 47.522,170.612 43.823,169.322 43.413 C 169.145 43.357,169.000 43.255,169.000 43.187 C 169.000 42.968,165.642 41.350,164.333 40.939 C 160.039 39.589,159.019 39.502,146.314 39.397 C 136.725 39.318,135.869 39.333,135.772 39.586 M247.955 39.433 C 247.888 39.501,247.833 41.896,247.833 44.756 L 247.833 49.956 248.393 50.047 C 248.700 50.097,252.807 50.101,257.518 50.055 C 266.355 49.970,268.241 50.056,270.167 50.632 C 271.879 51.145,273.699 52.566,274.255 53.825 C 274.399 54.151,274.585 54.542,274.668 54.695 C 275.055 55.406,275.240 57.779,274.944 58.232 L 274.659 58.667 266.061 58.667 C 257.195 58.667,255.350 58.775,253.106 59.430 C 252.660 59.560,252.158 59.667,251.991 59.667 C 251.823 59.667,251.640 59.742,251.583 59.833 C 251.527 59.925,251.331 60.000,251.148 60.000 C 250.821 60.000,250.155 60.272,248.333 61.151 C 246.689 61.943,245.922 62.504,244.095 64.250 C 242.956 65.338,241.822 67.135,241.257 68.750 C 241.096 69.208,240.903 69.733,240.827 69.917 C 240.062 71.770,240.064 77.514,240.830 79.417 C 240.904 79.600,241.096 80.125,241.257 80.583 C 242.625 84.489,245.835 87.530,250.750 89.576 C 254.056 90.953,260.812 91.397,264.752 90.497 C 268.457 89.650,273.415 87.220,274.354 85.790 C 274.811 85.094,275.167 85.884,275.167 87.595 C 275.167 88.873,275.222 89.334,275.375 89.336 C 282.094 89.420,287.381 89.359,287.481 89.197 C 287.547 89.091,287.585 81.027,287.567 71.277 C 287.532 52.406,287.530 52.364,286.732 50.558 C 286.604 50.269,286.500 49.943,286.500 49.834 C 286.500 49.434,285.136 47.057,284.325 46.042 C 282.511 43.773,279.459 41.799,276.333 40.873 C 273.887 40.148,272.564 39.873,270.417 39.645 C 268.610 39.452,248.129 39.260,247.955 39.433 M327.772 39.586 C 327.457 40.406,327.664 49.843,327.999 49.967 C 328.182 50.035,332.325 50.077,337.207 50.062 C 348.694 50.027,349.736 50.136,352.032 51.624 C 354.160 53.002,355.582 56.322,354.852 58.208 L 354.675 58.667 345.805 58.667 C 334.558 58.667,333.008 58.877,328.583 61.002 C 321.962 64.182,318.468 71.728,320.442 78.583 C 320.574 79.042,320.760 79.679,320.855 80.000 C 321.352 81.665,323.222 84.625,324.575 85.887 C 325.547 86.794,326.452 87.500,326.642 87.500 C 326.747 87.500,326.833 87.558,326.833 87.629 C 326.833 87.700,327.115 87.902,327.458 88.079 C 327.802 88.256,328.196 88.484,328.333 88.585 C 328.566 88.758,329.195 89.042,330.417 89.526 C 331.209 89.840,332.353 90.176,333.167 90.333 C 333.579 90.413,334.292 90.567,334.750 90.676 C 335.868 90.943,342.632 90.943,343.750 90.676 C 344.208 90.567,344.921 90.422,345.333 90.354 C 345.746 90.286,346.247 90.141,346.447 90.032 C 346.648 89.923,346.960 89.833,347.142 89.833 C 347.324 89.833,347.685 89.728,347.945 89.600 C 348.204 89.471,349.089 89.041,349.912 88.643 C 350.734 88.246,352.105 87.406,352.958 86.777 C 354.947 85.311,355.000 85.332,355.000 87.553 L 355.000 89.283 360.804 89.402 C 363.996 89.467,366.809 89.471,367.054 89.409 L 367.500 89.297 367.500 72.198 C 367.500 53.853,367.480 53.359,366.634 50.750 C 365.501 47.256,363.201 44.382,360.086 42.567 C 359.018 41.946,356.858 41.000,356.506 41.000 C 356.356 41.000,356.162 40.933,356.075 40.851 C 355.788 40.580,352.360 39.869,350.250 39.642 C 347.258 39.320,327.893 39.272,327.772 39.586 M68.917 49.311 C 69.375 49.414,69.900 49.564,70.083 49.646 C 70.267 49.727,70.754 49.930,71.167 50.096 C 73.562 51.062,75.873 53.374,76.987 55.917 C 77.187 56.375,77.429 56.907,77.523 57.099 C 77.618 57.291,77.708 57.704,77.723 58.016 L 77.750 58.583 65.458 58.626 C 55.687 58.660,53.163 58.626,53.149 58.459 C 52.997 56.655,54.941 53.591,57.448 51.685 C 58.282 51.052,60.566 49.833,60.920 49.833 C 61.058 49.833,61.301 49.757,61.461 49.664 C 62.478 49.069,66.898 48.860,68.917 49.311 M210.833 49.325 C 211.338 49.435,211.821 49.595,211.908 49.679 C 211.995 49.764,212.189 49.833,212.338 49.833 C 212.706 49.833,215.483 51.297,216.278 51.909 C 225.209 58.788,223.985 73.427,214.083 78.154 C 213.442 78.461,212.788 78.775,212.631 78.854 C 210.562 79.882,204.829 79.880,202.250 78.850 C 201.723 78.640,199.601 77.602,199.417 77.465 C 196.483 75.282,194.291 72.142,193.654 69.210 C 193.569 68.820,193.422 68.144,193.326 67.708 C 192.615 64.475,193.260 59.800,194.864 56.552 C 196.102 54.046,199.852 50.360,201.196 50.328 C 201.317 50.325,201.562 50.213,201.740 50.078 C 201.918 49.943,202.232 49.833,202.439 49.833 C 202.645 49.833,202.857 49.763,202.911 49.676 C 202.964 49.590,203.362 49.473,203.796 49.416 C 204.229 49.359,204.733 49.244,204.917 49.161 C 205.369 48.956,209.695 49.076,210.833 49.325 M162.572 68.496 C 164.114 69.082,162.139 74.231,159.299 77.032 C 158.249 78.067,158.256 78.062,155.982 79.200 C 148.101 83.143,138.525 79.013,140.726 72.619 C 141.349 70.809,143.482 68.833,144.814 68.833 C 144.971 68.833,145.171 68.763,145.258 68.678 C 145.596 68.346,161.733 68.177,162.572 68.496 M274.627 68.439 C 275.146 68.578,275.250 69.156,275.010 70.562 C 274.174 75.465,270.753 78.842,265.083 80.360 C 263.783 80.708,258.821 80.658,257.750 80.285 C 253.731 78.888,251.840 75.909,252.905 72.653 C 253.466 70.937,255.693 68.868,257.008 68.839 C 257.150 68.836,257.338 68.763,257.425 68.678 C 257.719 68.389,273.616 68.168,274.627 68.439 M354.744 68.559 C 355.490 69.104,354.631 72.805,353.288 74.833 C 352.664 75.776,350.244 78.167,349.914 78.167 C 349.778 78.167,349.667 78.231,349.667 78.309 C 349.667 78.522,347.439 79.588,345.917 80.104 C 344.319 80.645,339.513 80.795,337.917 80.352 C 330.468 78.289,330.773 69.592,338.333 68.442 C 339.651 68.242,354.455 68.347,354.744 68.559 " stroke="none" fill="#374d55" fill-rule="evenodd"></path><path id="path1" d="M0.000 47.583 L 0.000 95.167 200.000 95.167 L 400.000 95.167 400.000 47.583 L 400.000 0.000 200.000 0.000 L 0.000 0.000 0.000 47.583 M235.740 19.518 C 235.933 19.698,235.999 89.077,235.807 89.625 L 235.675 90.000 229.125 90.000 C 221.199 90.000,221.833 90.189,221.833 87.824 C 221.833 85.876,221.893 85.902,220.212 87.125 C 218.334 88.492,217.617 88.885,215.333 89.798 C 211.745 91.233,205.609 91.895,202.022 91.235 C 199.610 90.792,198.286 90.495,197.500 90.224 C 191.214 88.052,185.575 83.079,182.883 77.333 C 182.604 76.737,182.246 75.912,182.088 75.500 C 181.929 75.087,181.695 74.504,181.567 74.203 C 181.438 73.902,181.333 73.523,181.333 73.361 C 181.333 73.199,181.266 72.995,181.183 72.908 C 180.444 72.131,179.709 65.628,179.997 62.419 C 180.144 60.784,180.268 59.945,180.806 56.950 C 180.885 56.510,181.036 56.064,181.141 55.959 C 181.247 55.853,181.333 55.634,181.333 55.472 C 181.333 55.310,181.439 54.932,181.568 54.631 C 181.697 54.330,182.049 53.493,182.349 52.771 C 182.807 51.674,183.365 50.669,185.083 47.850 C 187.759 43.461,194.321 39.130,200.417 37.729 C 203.413 37.041,211.001 37.366,213.109 38.274 C 213.397 38.398,213.744 38.500,213.880 38.500 C 214.015 38.500,214.416 38.616,214.771 38.757 C 215.126 38.899,215.567 39.075,215.750 39.148 C 216.964 39.632,219.593 41.043,220.523 41.708 C 221.132 42.144,221.675 42.500,221.730 42.500 C 221.786 42.500,221.850 37.310,221.874 30.966 L 221.917 19.432 222.333 19.308 C 222.907 19.138,235.545 19.336,235.740 19.518 M23.050 26.487 C 23.700 26.734,23.726 26.971,23.780 32.917 C 23.808 36.033,23.831 38.640,23.832 38.708 C 23.833 38.777,26.862 38.833,30.563 38.833 C 36.386 38.833,37.321 38.868,37.503 39.087 C 37.801 39.446,37.647 49.538,37.339 49.910 C 37.159 50.127,36.185 50.169,30.523 50.206 L 23.917 50.250 23.770 56.333 C 23.586 63.982,23.825 72.900,24.242 73.917 C 25.613 77.263,27.210 78.327,30.873 78.331 C 32.501 78.333,33.118 78.233,35.216 77.628 C 36.317 77.310,37.167 77.331,37.167 77.677 C 37.167 78.286,39.660 82.867,40.336 83.500 C 40.385 83.546,40.686 83.918,41.004 84.327 C 41.323 84.736,42.015 85.508,42.542 86.042 C 43.800 87.316,43.833 87.764,42.708 88.295 C 42.273 88.501,41.823 88.669,41.708 88.668 C 41.594 88.667,41.500 88.740,41.500 88.830 C 41.500 88.920,41.294 89.043,41.042 89.103 C 40.790 89.163,40.508 89.264,40.417 89.328 C 39.772 89.773,36.323 90.706,33.333 91.245 C 31.457 91.583,27.512 91.581,25.754 91.242 C 23.427 90.792,22.100 90.473,21.558 90.233 C 21.269 90.105,20.917 90.000,20.776 90.000 C 20.635 90.000,20.477 89.931,20.425 89.846 C 20.372 89.762,20.105 89.643,19.831 89.583 C 19.557 89.523,19.333 89.413,19.333 89.338 C 19.333 89.264,19.146 89.156,18.917 89.098 C 18.688 89.041,18.500 88.920,18.500 88.830 C 18.500 88.740,18.394 88.667,18.264 88.667 C 17.060 88.667,13.110 84.531,11.898 82.000 C 10.483 79.049,10.284 78.206,9.667 72.551 C 9.347 69.616,9.448 27.001,9.776 26.638 C 10.084 26.297,22.188 26.160,23.050 26.487 M306.558 26.645 C 306.805 26.850,306.833 27.497,306.833 32.852 L 306.833 38.830 313.875 38.873 L 320.917 38.917 320.961 44.333 C 321.001 49.278,320.980 49.768,320.721 49.958 C 320.505 50.117,318.852 50.167,313.843 50.169 C 310.217 50.171,307.155 50.232,307.039 50.306 C 306.727 50.504,306.829 72.087,307.147 73.167 C 308.247 76.904,310.746 78.748,314.278 78.430 C 315.166 78.350,315.508 78.377,315.608 78.536 C 315.854 78.928,316.322 80.411,316.333 80.833 C 316.339 81.063,316.454 81.396,316.589 81.574 C 316.723 81.751,316.836 82.051,316.839 82.240 C 316.842 82.429,316.954 82.729,317.089 82.907 C 317.223 83.085,317.333 83.314,317.333 83.416 C 317.333 84.077,319.029 86.686,320.299 87.978 C 321.869 89.576,321.907 89.758,320.750 90.164 C 317.451 91.322,311.615 91.923,309.467 91.327 C 309.128 91.233,308.378 91.089,307.801 91.007 C 306.314 90.796,305.138 90.495,304.755 90.229 C 304.574 90.103,304.335 90.000,304.225 90.000 C 303.935 90.000,301.968 89.070,300.862 88.410 C 299.644 87.683,297.256 85.509,296.385 84.333 C 295.395 82.997,294.095 80.134,293.660 78.333 C 292.728 74.471,292.804 76.715,292.761 51.716 C 292.718 26.501,292.715 26.655,293.333 26.479 C 294.166 26.243,306.256 26.395,306.558 26.645 M67.583 37.338 C 68.500 37.435,69.662 37.593,70.167 37.690 C 70.671 37.788,71.458 37.930,71.917 38.006 C 74.289 38.402,80.118 41.185,81.333 42.502 C 81.379 42.551,81.754 42.852,82.167 43.170 C 85.037 45.381,88.526 50.140,89.741 53.500 C 89.968 54.129,90.572 55.923,90.843 56.775 C 91.796 59.774,92.236 67.537,91.480 68.016 C 91.352 68.097,82.763 68.163,72.106 68.164 L 52.962 68.167 53.050 68.625 C 53.796 72.513,56.782 76.692,59.833 78.116 C 62.479 79.352,64.385 79.659,67.500 79.352 C 70.354 79.071,73.081 78.111,74.340 76.944 C 74.568 76.732,74.969 76.419,75.230 76.248 C 75.491 76.077,76.189 75.277,76.781 74.470 C 78.095 72.680,78.133 72.657,79.313 72.930 C 80.269 73.152,81.541 73.425,83.917 73.918 C 84.650 74.070,85.438 74.264,85.667 74.350 C 85.896 74.435,86.496 74.578,87.000 74.667 C 90.709 75.324,90.828 75.476,89.476 77.833 C 89.397 77.971,89.266 78.233,89.184 78.417 C 87.708 81.733,80.401 88.667,78.381 88.667 C 78.263 88.667,78.167 88.740,78.167 88.830 C 78.167 88.920,77.965 89.044,77.719 89.106 C 77.473 89.168,77.080 89.319,76.844 89.441 C 76.609 89.564,76.284 89.665,76.123 89.666 C 75.961 89.666,75.699 89.732,75.539 89.813 C 72.960 91.113,64.815 91.893,61.167 91.189 C 59.111 90.792,57.583 90.435,57.413 90.312 C 57.319 90.244,56.869 90.063,56.413 89.911 C 53.206 88.838,49.407 86.545,47.197 84.346 C 45.663 82.821,43.167 79.778,43.167 79.433 C 43.167 79.397,42.884 78.891,42.539 78.309 C 42.193 77.726,41.659 76.688,41.351 76.000 C 41.043 75.313,40.727 74.621,40.648 74.464 C 40.512 74.193,40.440 73.943,39.993 72.167 C 39.889 71.754,39.734 71.181,39.648 70.893 C 38.984 68.671,38.831 63.448,39.338 60.309 C 39.536 59.085,39.756 57.667,39.827 57.158 C 39.898 56.649,40.030 56.087,40.121 55.908 C 40.212 55.729,40.417 55.171,40.577 54.667 C 40.737 54.163,40.981 53.487,41.120 53.167 C 41.569 52.129,42.414 50.419,42.519 50.333 C 42.576 50.288,42.674 50.081,42.739 49.875 C 42.803 49.669,42.926 49.500,43.011 49.500 C 43.097 49.500,43.167 49.422,43.167 49.327 C 43.167 49.178,43.749 48.251,44.000 48.000 C 44.046 47.954,44.383 47.542,44.749 47.083 C 46.650 44.705,49.401 42.267,51.667 40.953 C 53.640 39.808,56.661 38.508,57.364 38.502 C 57.519 38.501,57.856 38.412,58.114 38.304 C 60.125 37.464,64.517 37.017,67.583 37.338 M109.967 39.033 C 110.111 39.178,110.167 40.337,110.167 43.200 L 110.167 47.168 110.792 46.467 C 111.627 45.531,114.057 43.167,114.185 43.167 C 114.241 43.167,114.853 42.794,115.544 42.338 C 116.721 41.562,118.493 40.671,119.833 40.181 C 120.434 39.961,120.973 39.819,122.417 39.499 C 122.875 39.397,123.475 39.238,123.750 39.145 C 124.025 39.052,125.191 38.934,126.341 38.882 C 129.320 38.748,129.068 38.178,128.960 44.816 C 128.856 51.153,129.033 50.664,126.843 50.671 C 125.564 50.675,124.764 50.811,122.036 51.493 C 121.643 51.591,121.193 51.737,121.036 51.817 C 120.879 51.897,120.451 52.103,120.086 52.273 C 119.425 52.582,117.963 53.419,117.514 53.745 C 116.743 54.306,114.190 56.998,113.946 57.507 C 113.882 57.641,113.682 57.975,113.501 58.250 C 113.320 58.525,113.091 58.936,112.992 59.163 C 112.893 59.390,112.630 59.940,112.406 60.385 C 112.183 60.830,112.000 61.323,112.000 61.480 C 112.000 61.638,111.929 61.838,111.843 61.925 C 111.686 62.083,111.487 62.771,111.100 64.500 C 110.987 65.004,110.851 65.529,110.798 65.667 C 110.288 66.985,110.166 69.628,110.166 79.343 C 110.167 87.651,110.128 89.322,109.930 89.593 C 109.576 90.078,96.442 90.193,96.203 89.714 C 95.926 89.160,96.067 39.165,96.345 38.989 C 96.726 38.748,109.724 38.790,109.967 39.033 M158.167 39.143 C 159.268 39.366,160.915 39.640,162.167 39.808 C 162.671 39.876,163.247 40.021,163.447 40.132 C 163.648 40.243,163.999 40.333,164.229 40.333 C 164.459 40.333,164.688 40.400,164.739 40.482 C 164.789 40.563,165.033 40.681,165.281 40.743 C 165.938 40.908,168.833 42.361,168.833 42.526 C 168.833 42.603,168.916 42.667,169.018 42.667 C 169.669 42.667,173.500 46.644,173.500 47.321 C 173.500 47.419,173.558 47.500,173.628 47.500 C 173.832 47.500,174.639 49.179,175.071 50.500 C 175.875 52.964,175.868 52.780,175.898 71.641 C 175.920 86.170,175.885 89.423,175.703 89.683 C 175.492 89.985,175.186 90.000,169.295 90.000 C 161.975 90.000,162.501 90.147,162.497 88.099 C 162.494 86.438,162.382 86.208,161.825 86.724 C 161.223 87.282,159.122 88.667,158.877 88.667 C 158.761 88.667,158.667 88.740,158.667 88.830 C 158.667 88.920,158.460 89.044,158.208 89.106 C 157.956 89.168,157.712 89.267,157.667 89.326 C 157.366 89.718,153.791 90.801,152.167 90.993 C 151.571 91.064,150.627 91.214,150.069 91.327 C 148.803 91.584,144.882 91.468,142.667 91.109 C 139.467 90.591,138.112 90.104,134.580 88.203 C 134.113 87.952,131.398 85.473,130.798 84.750 C 129.816 83.567,128.737 81.525,128.289 80.000 C 128.141 79.496,127.922 78.746,127.802 78.333 C 127.512 77.338,127.511 72.749,127.801 71.417 C 128.045 70.293,128.503 68.711,128.694 68.333 C 128.763 68.196,129.015 67.654,129.254 67.129 C 130.349 64.718,132.465 62.634,135.531 60.948 C 136.209 60.575,136.686 60.363,138.417 59.664 C 139.079 59.397,140.595 58.965,141.331 58.833 C 141.745 58.759,142.496 58.619,143.000 58.523 C 145.366 58.069,147.450 57.990,154.191 58.103 C 157.984 58.167,161.368 58.166,161.710 58.102 L 162.333 57.985 162.333 56.797 C 162.333 54.655,161.014 52.617,158.985 51.627 C 156.831 50.575,157.072 50.594,145.833 50.589 C 140.196 50.586,135.490 50.523,135.375 50.448 C 135.215 50.345,135.167 49.015,135.167 44.735 L 135.167 39.156 135.542 38.995 C 136.079 38.766,156.974 38.902,158.167 39.143 M270.333 39.137 C 270.837 39.238,271.737 39.400,272.333 39.497 C 274.754 39.893,275.138 39.973,275.468 40.149 C 275.657 40.251,276.001 40.333,276.233 40.333 C 277.553 40.333,281.711 42.707,283.640 44.561 C 284.964 45.833,286.833 48.720,286.833 49.491 C 286.833 49.679,286.905 49.833,286.992 49.833 C 287.080 49.833,287.198 50.115,287.254 50.458 C 287.311 50.802,287.428 51.233,287.515 51.417 C 287.994 52.426,288.055 54.489,288.113 71.777 C 288.167 87.774,288.147 89.496,287.908 89.735 C 287.562 90.081,275.209 90.142,274.867 89.800 C 274.740 89.673,274.667 89.033,274.667 88.050 C 274.667 86.244,274.699 86.262,273.317 87.303 C 272.730 87.744,272.137 88.156,272.000 88.218 C 271.759 88.327,271.649 88.386,270.917 88.804 C 270.586 88.993,269.389 89.557,268.750 89.825 C 267.606 90.305,265.861 90.727,262.902 91.238 C 261.175 91.537,256.919 91.591,255.967 91.327 C 255.628 91.233,254.878 91.090,254.301 91.009 C 253.060 90.835,251.952 90.556,251.225 90.233 C 250.936 90.105,250.616 90.000,250.514 90.000 C 250.412 90.000,250.199 89.932,250.039 89.849 C 249.880 89.767,249.356 89.524,248.875 89.310 C 248.394 89.096,248.000 88.864,248.000 88.794 C 248.000 88.724,247.930 88.667,247.845 88.667 C 247.407 88.667,244.579 86.475,243.438 85.251 C 242.202 83.925,240.333 80.431,240.333 79.444 C 240.333 79.237,240.253 78.986,240.155 78.888 C 239.659 78.392,239.670 72.124,240.170 70.564 C 241.794 65.497,244.090 62.597,247.833 60.884 C 248.521 60.569,249.217 60.239,249.381 60.151 C 249.916 59.861,252.696 58.976,253.566 58.818 C 257.708 58.065,259.213 57.977,267.000 58.031 L 274.583 58.083 274.638 57.417 C 274.820 55.198,273.326 52.665,271.250 51.669 C 268.906 50.546,269.321 50.579,258.048 50.628 L 247.846 50.674 247.577 50.263 C 247.351 49.919,247.292 49.083,247.212 45.128 C 247.107 39.922,247.164 39.229,247.718 38.993 C 248.242 38.769,269.156 38.902,270.333 39.137 M347.833 38.995 C 350.651 39.189,353.228 39.506,353.408 39.680 C 353.495 39.764,353.870 39.836,354.242 39.839 C 354.613 39.842,355.104 39.952,355.333 40.083 C 355.563 40.214,355.952 40.324,356.198 40.327 C 356.445 40.331,356.688 40.400,356.739 40.482 C 356.789 40.563,357.032 40.681,357.280 40.743 C 357.843 40.884,359.883 41.853,360.694 42.365 C 362.189 43.307,365.042 46.100,365.318 46.890 C 365.355 46.996,365.549 47.308,365.749 47.583 C 366.264 48.291,366.833 49.457,366.833 49.805 C 366.833 49.967,366.908 50.174,366.999 50.265 C 367.089 50.356,367.243 50.802,367.340 51.257 C 367.437 51.711,367.584 52.383,367.668 52.750 C 367.912 53.825,367.878 89.555,367.633 89.800 C 367.381 90.052,355.751 90.087,355.094 89.837 C 354.674 89.678,354.667 89.646,354.667 87.986 C 354.667 86.506,354.634 86.310,354.400 86.400 C 353.955 86.571,352.167 87.871,352.167 88.024 C 352.167 88.103,352.063 88.167,351.937 88.167 C 351.811 88.167,351.614 88.279,351.500 88.417 C 351.386 88.554,351.184 88.667,351.051 88.667 C 350.918 88.667,350.697 88.779,350.560 88.917 C 350.422 89.054,350.165 89.167,349.988 89.167 C 349.811 89.167,349.667 89.242,349.667 89.333 C 349.667 89.425,349.584 89.500,349.484 89.500 C 349.383 89.500,349.064 89.603,348.775 89.730 C 345.462 91.179,339.341 91.901,335.780 91.263 C 332.575 90.688,331.413 90.435,331.005 90.222 C 330.773 90.101,330.489 90.002,330.373 90.001 C 330.257 90.000,330.032 89.930,329.873 89.845 C 329.714 89.759,329.058 89.445,328.417 89.146 C 326.713 88.353,325.356 87.380,324.000 85.979 C 322.390 84.316,321.811 83.492,320.970 81.667 C 319.162 77.741,319.044 72.612,320.670 68.583 C 321.483 66.568,323.157 63.973,323.924 63.537 C 324.041 63.471,324.387 63.190,324.694 62.913 C 326.108 61.631,328.519 60.306,330.779 59.569 C 334.913 58.219,336.330 58.076,345.000 58.129 C 348.712 58.152,352.350 58.114,353.083 58.044 L 354.417 57.917 354.405 56.817 C 354.383 54.840,353.164 52.589,351.795 51.998 C 351.587 51.908,351.304 51.768,351.167 51.686 C 349.403 50.644,349.000 50.611,337.800 50.597 C 331.042 50.588,327.458 50.525,327.346 50.413 C 327.110 50.177,327.111 50.197,327.140 44.370 L 327.167 39.156 327.542 39.005 C 328.002 38.820,345.168 38.812,347.833 38.995 M63.500 49.660 C 61.795 49.906,58.839 51.155,57.766 52.082 C 57.499 52.312,57.199 52.505,57.099 52.510 C 56.902 52.522,54.960 54.712,54.850 55.047 C 54.813 55.159,54.738 55.288,54.683 55.333 C 54.522 55.468,53.833 56.935,53.833 57.146 C 53.833 57.251,53.740 57.489,53.625 57.674 C 53.453 57.951,53.461 58.038,53.667 58.169 C 54.075 58.429,77.162 58.385,77.186 58.125 C 77.229 57.671,77.114 57.353,76.315 55.727 C 74.033 51.084,69.264 48.826,63.500 49.660 M204.667 49.661 C 200.217 50.353,196.013 54.062,194.441 58.682 C 192.640 63.975,193.659 70.671,196.833 74.407 C 198.435 76.292,200.867 77.964,202.667 78.416 C 202.896 78.474,203.233 78.584,203.417 78.661 C 206.091 79.783,210.760 79.333,214.164 77.626 C 216.652 76.378,220.753 71.800,220.823 70.192 C 220.829 70.068,220.938 69.731,221.066 69.442 C 223.054 64.953,221.365 57.589,217.433 53.597 C 215.602 51.737,212.875 50.309,209.917 49.661 C 209.141 49.491,205.761 49.491,204.667 49.661 M145.917 68.984 C 143.627 69.513,142.385 70.375,141.449 72.083 C 140.919 73.050,140.924 75.762,141.458 76.774 C 141.814 77.450,143.245 78.830,143.592 78.832 C 143.688 78.833,143.854 78.921,143.961 79.028 C 144.694 79.761,148.523 80.421,150.542 80.162 C 151.206 80.077,152.125 79.961,152.583 79.906 C 153.042 79.850,153.653 79.698,153.942 79.569 C 154.231 79.439,154.583 79.333,154.724 79.333 C 154.865 79.333,155.022 79.267,155.072 79.185 C 155.122 79.104,155.365 78.986,155.610 78.925 C 157.461 78.460,160.428 75.553,161.573 73.083 C 161.743 72.717,161.948 72.283,162.029 72.120 C 162.234 71.706,162.512 69.392,162.394 69.086 C 162.312 68.871,161.748 68.833,158.607 68.833 C 156.577 68.833,153.192 68.798,151.083 68.755 C 147.764 68.687,147.071 68.718,145.917 68.984 M258.417 68.924 C 257.775 69.060,257.051 69.283,256.808 69.419 C 256.564 69.555,256.246 69.667,256.099 69.667 C 255.953 69.667,255.831 69.723,255.829 69.792 C 255.826 69.860,255.539 70.092,255.191 70.307 C 252.425 72.011,252.603 76.953,255.493 78.707 C 255.818 78.904,256.121 79.108,256.167 79.159 C 256.284 79.290,257.925 79.786,258.917 79.990 C 262.129 80.653,266.181 79.938,269.333 78.153 C 270.698 77.380,273.136 74.719,273.597 73.500 C 273.649 73.362,273.771 73.104,273.868 72.925 C 274.344 72.049,274.795 69.454,274.539 69.062 C 274.327 68.737,259.879 68.613,258.417 68.924 M337.998 68.994 C 332.182 70.184,331.070 76.690,336.265 79.135 C 336.715 79.347,337.214 79.591,337.373 79.677 C 337.532 79.763,337.846 79.833,338.070 79.833 C 338.295 79.833,338.689 79.915,338.947 80.016 C 339.623 80.278,343.380 80.228,344.667 79.939 C 348.304 79.124,351.419 76.984,353.195 74.083 C 354.185 72.465,354.988 68.855,354.364 68.828 C 350.611 68.668,339.020 68.785,337.998 68.994 M383.393 73.596 C 393.494 76.190,391.897 90.361,381.500 90.386 C 376.842 90.397,373.451 87.834,372.560 83.627 C 371.295 77.654,377.352 72.045,383.393 73.596 " stroke="none" fill="#f3f3f3" fill-rule="evenodd"></path><path id="path2" d="M379.434 73.607 C 373.734 74.829,370.732 80.900,373.367 85.877 C 376.395 91.598,385.275 92.070,388.833 86.699 C 393.076 80.293,387.097 71.964,379.434 73.607 " stroke="none" fill="#f27541" fill-rule="evenodd"></path><path id="path3" d="M222.333 19.308 L 221.917 19.432 221.874 30.966 C 221.850 37.310,221.786 42.500,221.730 42.500 C 221.675 42.500,221.132 42.144,220.523 41.708 C 219.593 41.043,216.964 39.632,215.750 39.148 C 215.567 39.075,215.126 38.899,214.771 38.757 C 214.416 38.616,214.015 38.500,213.880 38.500 C 213.744 38.500,213.397 38.398,213.109 38.274 C 211.001 37.366,203.413 37.041,200.417 37.729 C 194.321 39.130,187.759 43.461,185.083 47.850 C 183.365 50.669,182.807 51.674,182.349 52.771 C 182.049 53.493,181.697 54.330,181.568 54.631 C 181.439 54.932,181.333 55.310,181.333 55.472 C 181.333 55.634,181.247 55.853,181.141 55.959 C 181.036 56.064,180.885 56.510,180.806 56.950 C 180.268 59.945,180.144 60.784,179.997 62.419 C 179.709 65.628,180.444 72.131,181.183 72.908 C 181.266 72.995,181.333 73.199,181.333 73.361 C 181.333 73.523,181.438 73.902,181.567 74.203 C 181.695 74.504,181.929 75.087,182.088 75.500 C 183.921 80.273,186.798 83.819,191.722 87.372 C 192.196 87.713,193.371 88.377,194.333 88.845 C 197.339 90.309,197.848 90.467,202.022 91.235 C 205.609 91.895,211.745 91.233,215.333 89.798 C 217.617 88.885,218.334 88.492,220.212 87.125 C 221.893 85.902,221.833 85.876,221.833 87.824 C 221.833 90.189,221.199 90.000,229.125 90.000 L 235.675 90.000 235.807 89.625 C 235.999 89.077,235.933 19.698,235.740 19.518 C 235.545 19.336,222.907 19.138,222.333 19.308 M235.583 54.583 L 235.583 89.583 229.250 89.630 C 221.395 89.687,222.167 89.873,222.167 87.927 C 222.167 85.650,222.058 85.495,221.016 86.291 C 218.889 87.916,215.823 89.544,214.060 89.984 C 213.706 90.072,212.854 90.291,212.167 90.470 C 195.703 94.756,180.168 82.188,180.170 64.583 C 180.170 50.465,189.509 39.286,202.667 37.650 C 204.259 37.452,209.275 37.582,210.483 37.853 C 214.680 38.793,218.198 40.249,220.553 42.022 C 222.211 43.269,222.087 44.165,222.057 31.117 C 222.037 22.664,222.080 19.719,222.224 19.627 C 222.330 19.559,225.379 19.521,229.000 19.543 L 235.583 19.583 235.583 54.583 M9.776 26.638 C 9.448 27.001,9.347 69.616,9.667 72.551 C 10.284 78.206,10.483 79.049,11.898 82.000 C 13.110 84.531,17.060 88.667,18.264 88.667 C 18.394 88.667,18.500 88.740,18.500 88.830 C 18.500 88.920,18.688 89.041,18.917 89.098 C 19.146 89.156,19.333 89.264,19.333 89.338 C 19.333 89.413,19.557 89.523,19.831 89.583 C 20.105 89.643,20.372 89.762,20.425 89.846 C 20.477 89.931,20.635 90.000,20.776 90.000 C 20.917 90.000,21.269 90.105,21.558 90.233 C 22.100 90.473,23.427 90.792,25.754 91.242 C 27.512 91.581,31.457 91.583,33.333 91.245 C 36.323 90.706,39.772 89.773,40.417 89.328 C 40.508 89.264,40.790 89.163,41.042 89.103 C 41.294 89.043,41.500 88.920,41.500 88.830 C 41.500 88.740,41.594 88.667,41.708 88.668 C 41.823 88.669,42.273 88.501,42.708 88.295 C 43.833 87.764,43.800 87.316,42.542 86.042 C 42.015 85.508,41.323 84.736,41.004 84.327 C 40.686 83.918,40.385 83.546,40.336 83.500 C 39.660 82.867,37.167 78.286,37.167 77.677 C 37.167 77.331,36.317 77.310,35.216 77.628 C 33.118 78.233,32.501 78.333,30.873 78.331 C 27.210 78.327,25.613 77.263,24.242 73.917 C 23.825 72.900,23.586 63.982,23.770 56.333 L 23.917 50.250 30.523 50.206 C 36.185 50.169,37.159 50.127,37.339 49.910 C 37.647 49.538,37.801 39.446,37.503 39.087 C 37.321 38.868,36.386 38.833,30.563 38.833 C 26.862 38.833,23.833 38.777,23.832 38.708 C 23.831 38.640,23.808 36.033,23.780 32.917 C 23.726 26.971,23.700 26.734,23.050 26.487 C 22.188 26.160,10.084 26.297,9.776 26.638 M293.333 26.479 C 292.715 26.655,292.718 26.501,292.761 51.716 C 292.804 76.715,292.728 74.471,293.660 78.333 C 294.095 80.134,295.395 82.997,296.385 84.333 C 297.256 85.509,299.644 87.683,300.862 88.410 C 301.968 89.070,303.935 90.000,304.225 90.000 C 304.335 90.000,304.574 90.103,304.755 90.229 C 305.138 90.495,306.314 90.796,307.801 91.007 C 308.378 91.089,309.128 91.233,309.467 91.327 C 311.615 91.923,317.451 91.322,320.750 90.164 C 321.907 89.758,321.869 89.576,320.299 87.978 C 319.029 86.686,317.333 84.077,317.333 83.416 C 317.333 83.314,317.223 83.085,317.089 82.907 C 316.954 82.729,316.842 82.429,316.839 82.240 C 316.836 82.051,316.723 81.751,316.589 81.574 C 316.454 81.396,316.339 81.063,316.333 80.833 C 316.322 80.411,315.854 78.928,315.608 78.536 C 315.508 78.377,315.166 78.350,314.278 78.430 C 310.746 78.748,308.247 76.904,307.147 73.167 C 306.829 72.087,306.727 50.504,307.039 50.306 C 307.155 50.232,310.217 50.171,313.843 50.169 C 318.852 50.167,320.505 50.117,320.721 49.958 C 320.980 49.768,321.001 49.278,320.961 44.333 L 320.917 38.917 313.875 38.873 L 306.833 38.830 306.833 32.852 C 306.833 27.497,306.805 26.850,306.558 26.645 C 306.256 26.395,294.166 26.243,293.333 26.479 M23.250 26.850 C 23.353 26.953,23.439 29.312,23.474 33.008 L 23.532 39.000 30.346 39.000 L 37.160 39.000 37.269 39.432 C 37.413 40.006,37.261 49.547,37.103 49.801 C 37.011 49.950,35.301 50.000,30.333 50.000 C 26.148 50.000,23.649 50.061,23.585 50.164 C 23.334 50.569,23.494 71.558,23.758 72.818 C 24.880 78.190,28.902 79.805,35.917 77.701 C 36.666 77.477,36.773 77.573,37.492 79.106 C 38.670 81.620,40.399 84.142,42.399 86.264 C 43.682 87.625,43.675 87.638,41.083 88.753 C 38.497 89.866,38.658 89.810,36.083 90.503 C 32.297 91.522,26.743 91.481,23.000 90.407 C 22.496 90.262,21.850 90.084,21.565 90.011 C 18.083 89.123,13.919 85.511,12.039 81.750 C 9.891 77.452,9.917 77.827,9.917 50.333 L 9.917 26.750 10.500 26.636 C 11.402 26.460,23.055 26.655,23.250 26.850 M306.469 26.747 C 306.532 26.810,306.621 29.574,306.667 32.889 L 306.750 38.917 313.750 39.005 C 317.600 39.053,320.772 39.109,320.798 39.130 C 320.918 39.221,320.735 49.655,320.611 49.778 C 320.535 49.854,317.385 49.954,313.611 50.000 L 306.750 50.083 306.611 56.167 C 306.437 63.827,306.668 72.722,307.071 73.833 C 308.276 77.162,310.016 78.425,313.691 78.642 L 315.534 78.750 316.097 80.712 C 317.050 84.029,318.920 87.283,320.671 88.670 C 321.847 89.602,321.551 89.881,318.667 90.560 C 308.480 92.958,298.520 89.210,295.152 81.712 C 294.389 80.012,294.376 79.979,294.108 79.083 C 292.964 75.259,292.976 75.583,293.032 49.917 L 293.083 26.750 294.833 26.648 C 297.071 26.517,306.317 26.595,306.469 26.747 M62.250 37.430 C 60.358 37.662,58.931 37.963,58.114 38.304 C 57.856 38.412,57.519 38.501,57.364 38.502 C 56.661 38.508,53.640 39.808,51.667 40.953 C 49.401 42.267,46.650 44.705,44.749 47.083 C 44.383 47.542,44.046 47.954,44.000 48.000 C 43.749 48.251,43.167 49.178,43.167 49.327 C 43.167 49.422,43.097 49.500,43.011 49.500 C 42.926 49.500,42.803 49.669,42.739 49.875 C 42.674 50.081,42.576 50.288,42.519 50.333 C 42.414 50.419,41.569 52.129,41.120 53.167 C 40.981 53.487,40.737 54.163,40.577 54.667 C 40.417 55.171,40.212 55.729,40.121 55.908 C 40.030 56.087,39.898 56.649,39.827 57.158 C 39.756 57.667,39.536 59.085,39.338 60.309 C 38.831 63.448,38.984 68.671,39.648 70.893 C 39.734 71.181,39.889 71.754,39.993 72.167 C 40.440 73.943,40.512 74.193,40.648 74.464 C 40.727 74.621,41.043 75.313,41.351 76.000 C 41.659 76.688,42.193 77.726,42.539 78.309 C 42.884 78.891,43.167 79.397,43.167 79.433 C 43.167 79.778,45.663 82.821,47.197 84.346 C 49.407 86.545,53.206 88.838,56.413 89.911 C 56.869 90.063,57.319 90.244,57.413 90.312 C 57.583 90.435,59.111 90.792,61.167 91.189 C 64.815 91.893,72.960 91.113,75.539 89.813 C 75.699 89.732,75.961 89.666,76.123 89.666 C 76.284 89.665,76.609 89.564,76.844 89.441 C 77.080 89.319,77.473 89.168,77.719 89.106 C 77.965 89.044,78.167 88.920,78.167 88.830 C 78.167 88.740,78.263 88.667,78.381 88.667 C 80.401 88.667,87.708 81.733,89.184 78.417 C 89.266 78.233,89.397 77.971,89.476 77.833 C 90.828 75.476,90.709 75.324,87.000 74.667 C 86.496 74.578,85.896 74.435,85.667 74.350 C 85.438 74.264,84.650 74.070,83.917 73.918 C 81.541 73.425,80.269 73.152,79.313 72.930 C 78.133 72.657,78.095 72.680,76.781 74.470 C 76.189 75.277,75.491 76.077,75.230 76.248 C 74.969 76.419,74.568 76.732,74.340 76.944 C 73.081 78.111,70.354 79.071,67.500 79.352 C 64.385 79.659,62.479 79.352,59.833 78.116 C 56.782 76.692,53.796 72.513,53.050 68.625 L 52.962 68.167 72.106 68.164 C 82.763 68.163,91.352 68.097,91.480 68.016 C 92.236 67.537,91.796 59.774,90.843 56.775 C 90.572 55.923,89.968 54.129,89.741 53.500 C 88.526 50.140,85.037 45.381,82.167 43.170 C 81.754 42.852,81.379 42.551,81.333 42.502 C 80.118 41.185,74.289 38.402,71.917 38.006 C 71.458 37.930,70.671 37.788,70.167 37.690 C 67.409 37.158,65.096 37.082,62.250 37.430 M68.417 37.658 C 81.924 38.985,91.653 50.317,91.463 64.500 L 91.417 67.917 72.203 67.959 C 54.979 67.997,52.979 68.028,52.889 68.261 C 52.253 69.919,55.903 75.928,58.579 77.630 C 61.394 79.420,66.433 80.215,69.583 79.365 C 69.950 79.266,70.512 79.118,70.833 79.036 C 72.914 78.501,75.473 76.686,76.871 74.754 C 78.312 72.762,77.638 72.845,83.000 74.003 C 84.329 74.290,85.904 74.630,86.500 74.758 C 90.712 75.664,90.583 75.444,88.744 78.591 C 84.404 86.014,78.472 89.758,69.083 90.999 C 56.557 92.654,44.172 85.182,40.767 73.917 C 40.601 73.367,40.399 72.747,40.318 72.539 C 39.272 69.844,38.888 60.093,39.771 58.635 C 39.810 58.571,39.919 58.098,40.014 57.582 C 40.822 53.213,43.356 48.648,47.000 44.997 C 50.374 41.618,53.141 40.049,58.781 38.316 C 61.008 37.632,65.224 37.344,68.417 37.658 M96.345 38.989 C 96.067 39.165,95.926 89.160,96.203 89.714 C 96.442 90.193,109.576 90.078,109.930 89.593 C 110.128 89.322,110.167 87.651,110.166 79.343 C 110.166 69.628,110.288 66.985,110.798 65.667 C 110.851 65.529,110.987 65.004,111.100 64.500 C 111.487 62.771,111.686 62.083,111.843 61.925 C 111.929 61.838,112.000 61.638,112.000 61.480 C 112.000 61.323,112.183 60.830,112.406 60.385 C 112.630 59.940,112.893 59.390,112.992 59.163 C 113.091 58.936,113.320 58.525,113.501 58.250 C 113.682 57.975,113.882 57.641,113.946 57.507 C 114.190 56.998,116.743 54.306,117.514 53.745 C 117.963 53.419,119.425 52.582,120.086 52.273 C 120.451 52.103,120.879 51.897,121.036 51.817 C 121.193 51.737,121.643 51.591,122.036 51.493 C 124.764 50.811,125.564 50.675,126.843 50.671 C 129.033 50.664,128.856 51.153,128.960 44.816 C 129.068 38.178,129.320 38.748,126.341 38.882 C 125.191 38.934,124.025 39.052,123.750 39.145 C 123.475 39.238,122.875 39.397,122.417 39.499 C 120.973 39.819,120.434 39.961,119.833 40.181 C 118.493 40.671,116.721 41.562,115.544 42.338 C 114.853 42.794,114.241 43.167,114.185 43.167 C 114.057 43.167,111.627 45.531,110.792 46.467 L 110.167 47.168 110.167 43.200 C 110.167 40.337,110.111 39.178,109.967 39.033 C 109.724 38.790,96.726 38.748,96.345 38.989 M135.542 38.995 L 135.167 39.156 135.167 44.735 C 135.167 49.015,135.215 50.345,135.375 50.448 C 135.490 50.523,140.196 50.586,145.833 50.589 C 157.072 50.594,156.831 50.575,158.985 51.627 C 161.014 52.617,162.333 54.655,162.333 56.797 L 162.333 57.985 161.710 58.102 C 161.368 58.166,157.984 58.167,154.191 58.103 C 147.450 57.990,145.366 58.069,143.000 58.523 C 142.496 58.619,141.745 58.759,141.331 58.833 C 140.595 58.965,139.079 59.397,138.417 59.664 C 136.686 60.363,136.209 60.575,135.531 60.948 C 132.465 62.634,130.349 64.718,129.254 67.129 C 129.015 67.654,128.763 68.196,128.694 68.333 C 128.503 68.711,128.045 70.293,127.801 71.417 C 127.511 72.749,127.512 77.338,127.802 78.333 C 127.922 78.746,128.141 79.496,128.289 80.000 C 128.737 81.525,129.816 83.567,130.798 84.750 C 131.398 85.473,134.113 87.952,134.580 88.203 C 138.112 90.104,139.467 90.591,142.667 91.109 C 144.882 91.468,148.803 91.584,150.069 91.327 C 150.627 91.214,151.571 91.064,152.167 90.993 C 153.791 90.801,157.366 89.718,157.667 89.326 C 157.712 89.267,157.956 89.168,158.208 89.106 C 158.460 89.044,158.667 88.920,158.667 88.830 C 158.667 88.740,158.761 88.667,158.877 88.667 C 159.122 88.667,161.223 87.282,161.825 86.724 C 162.382 86.208,162.494 86.438,162.497 88.099 C 162.501 90.147,161.975 90.000,169.295 90.000 C 175.186 90.000,175.492 89.985,175.703 89.683 C 175.885 89.423,175.920 86.170,175.898 71.641 C 175.868 52.780,175.875 52.964,175.071 50.500 C 174.639 49.179,173.832 47.500,173.628 47.500 C 173.558 47.500,173.500 47.419,173.500 47.321 C 173.500 46.644,169.669 42.667,169.018 42.667 C 168.916 42.667,168.833 42.603,168.833 42.526 C 168.833 42.361,165.938 40.908,165.281 40.743 C 165.033 40.681,164.789 40.563,164.739 40.482 C 164.688 40.400,164.459 40.333,164.229 40.333 C 163.999 40.333,163.648 40.243,163.447 40.132 C 163.247 40.021,162.671 39.876,162.167 39.808 C 160.915 39.640,159.268 39.366,158.167 39.143 C 156.974 38.902,136.079 38.766,135.542 38.995 M247.718 38.993 C 247.164 39.229,247.107 39.922,247.212 45.128 C 247.292 49.083,247.351 49.919,247.577 50.263 L 247.846 50.674 258.048 50.628 C 269.321 50.579,268.906 50.546,271.250 51.669 C 273.326 52.665,274.820 55.198,274.638 57.417 L 274.583 58.083 267.000 58.031 C 257.218 57.963,252.341 58.550,249.381 60.151 C 249.217 60.239,248.521 60.569,247.833 60.884 C 244.090 62.597,241.794 65.497,240.170 70.564 C 239.670 72.124,239.659 78.392,240.155 78.888 C 240.253 78.986,240.333 79.237,240.333 79.444 C 240.333 80.431,242.202 83.925,243.438 85.251 C 244.579 86.475,247.407 88.667,247.845 88.667 C 247.930 88.667,248.000 88.724,248.000 88.794 C 248.000 88.864,248.394 89.096,248.875 89.310 C 249.356 89.524,249.880 89.767,250.039 89.849 C 250.199 89.932,250.412 90.000,250.514 90.000 C 250.616 90.000,250.936 90.105,251.225 90.233 C 251.952 90.556,253.060 90.835,254.301 91.009 C 254.878 91.090,255.628 91.233,255.967 91.327 C 258.276 91.968,265.731 91.092,268.750 89.825 C 269.389 89.557,270.586 88.993,270.917 88.804 C 271.649 88.386,271.759 88.327,272.000 88.218 C 272.137 88.156,272.730 87.744,273.317 87.303 C 274.699 86.262,274.667 86.244,274.667 88.050 C 274.667 89.033,274.740 89.673,274.867 89.800 C 275.209 90.142,287.562 90.081,287.908 89.735 C 288.147 89.496,288.167 87.774,288.113 71.777 C 288.055 54.489,287.994 52.426,287.515 51.417 C 287.428 51.233,287.311 50.802,287.254 50.458 C 287.198 50.115,287.080 49.833,286.992 49.833 C 286.905 49.833,286.833 49.679,286.833 49.491 C 286.833 48.720,284.964 45.833,283.640 44.561 C 281.711 42.707,277.553 40.333,276.233 40.333 C 276.001 40.333,275.657 40.251,275.468 40.149 C 275.138 39.973,274.754 39.893,272.333 39.497 C 271.737 39.400,270.837 39.238,270.333 39.137 C 269.156 38.902,248.242 38.769,247.718 38.993 M327.542 39.005 L 327.167 39.156 327.140 44.370 C 327.111 50.197,327.110 50.177,327.346 50.413 C 327.458 50.525,331.042 50.588,337.800 50.597 C 349.000 50.611,349.403 50.644,351.167 51.686 C 351.304 51.768,351.587 51.908,351.795 51.998 C 353.164 52.589,354.383 54.840,354.405 56.817 L 354.417 57.917 353.083 58.044 C 352.350 58.114,348.712 58.152,345.000 58.129 C 336.330 58.076,334.913 58.219,330.779 59.569 C 328.519 60.306,326.108 61.631,324.694 62.913 C 324.387 63.190,324.041 63.471,323.924 63.537 C 323.157 63.973,321.483 66.568,320.670 68.583 C 318.585 73.751,319.506 80.872,322.747 84.641 C 324.601 86.797,326.341 88.180,328.417 89.146 C 329.058 89.445,329.714 89.759,329.873 89.845 C 330.032 89.930,330.257 90.000,330.373 90.001 C 330.489 90.002,330.773 90.101,331.005 90.222 C 331.413 90.435,332.575 90.688,335.780 91.263 C 339.341 91.901,345.462 91.179,348.775 89.730 C 349.064 89.603,349.383 89.500,349.484 89.500 C 349.584 89.500,349.667 89.425,349.667 89.333 C 349.667 89.242,349.811 89.167,349.988 89.167 C 350.165 89.167,350.422 89.054,350.560 88.917 C 350.697 88.779,350.918 88.667,351.051 88.667 C 351.184 88.667,351.386 88.554,351.500 88.417 C 351.614 88.279,351.811 88.167,351.937 88.167 C 352.063 88.167,352.167 88.103,352.167 88.024 C 352.167 87.871,353.955 86.571,354.400 86.400 C 354.634 86.310,354.667 86.506,354.667 87.986 C 354.667 89.646,354.674 89.678,355.094 89.837 C 355.751 90.087,367.381 90.052,367.633 89.800 C 367.878 89.555,367.912 53.825,367.668 52.750 C 367.584 52.383,367.437 51.711,367.340 51.257 C 367.243 50.802,367.089 50.356,366.999 50.265 C 366.908 50.174,366.833 49.967,366.833 49.805 C 366.833 49.457,366.264 48.291,365.749 47.583 C 365.549 47.308,365.355 46.996,365.318 46.890 C 365.042 46.100,362.189 43.307,360.694 42.365 C 359.883 41.853,357.843 40.884,357.280 40.743 C 357.032 40.681,356.789 40.563,356.739 40.482 C 356.688 40.400,356.445 40.331,356.198 40.327 C 355.952 40.324,355.563 40.214,355.333 40.083 C 355.104 39.952,354.613 39.842,354.242 39.839 C 353.870 39.836,353.495 39.764,353.408 39.680 C 353.228 39.506,350.651 39.189,347.833 38.995 C 345.168 38.812,328.002 38.820,327.542 39.005 M109.837 39.428 C 109.927 39.663,110.000 41.575,110.000 43.678 C 110.000 47.973,109.959 47.876,111.183 46.458 C 115.201 41.808,121.891 38.763,127.500 39.031 L 128.583 39.083 128.630 44.333 C 128.689 50.986,128.963 50.241,126.378 50.469 C 119.804 51.049,115.354 53.923,112.642 59.343 C 112.289 60.048,112.000 60.680,112.000 60.746 C 112.000 60.812,111.894 61.103,111.765 61.391 C 111.263 62.510,110.712 64.710,110.233 67.500 C 110.005 68.831,109.958 70.695,109.936 79.216 C 109.914 87.967,109.877 89.371,109.664 89.506 C 109.517 89.600,106.781 89.647,102.917 89.624 L 96.417 89.583 96.374 64.500 C 96.350 50.704,96.367 39.323,96.410 39.208 C 96.472 39.047,97.961 39.000,103.082 39.000 L 109.675 39.000 109.837 39.428 M158.083 39.391 C 166.509 40.539,170.897 42.989,173.800 48.167 C 175.644 51.457,175.680 51.932,175.628 72.250 L 175.583 89.583 169.250 89.583 L 162.917 89.583 162.813 87.868 C 162.693 85.894,162.654 85.815,162.039 86.293 C 159.864 87.982,157.380 89.348,155.167 90.071 C 150.084 91.730,142.470 91.558,138.083 89.683 C 124.915 84.056,123.883 66.748,136.360 60.774 C 140.728 58.683,143.297 58.343,154.758 58.337 C 163.051 58.333,162.667 58.387,162.667 57.225 C 162.667 53.622,160.132 51.021,156.112 50.499 C 155.455 50.414,150.556 50.341,145.226 50.338 C 136.546 50.334,135.525 50.306,135.434 50.070 C 135.289 49.691,135.314 39.620,135.461 39.400 C 135.695 39.050,136.137 39.036,146.083 39.077 C 154.237 39.111,156.453 39.169,158.083 39.391 M270.333 39.386 C 280.314 40.715,285.257 44.317,287.389 51.813 C 287.749 53.081,287.750 53.115,287.750 71.333 L 287.750 89.583 281.520 89.627 C 274.234 89.678,274.833 89.847,274.833 87.739 C 274.833 85.900,274.755 85.813,273.808 86.604 C 268.555 90.994,258.554 92.585,251.583 90.142 C 244.004 87.485,240.018 82.200,240.004 74.790 C 239.991 67.419,243.831 62.117,250.833 59.843 C 252.747 59.221,252.910 59.175,253.837 58.996 C 256.278 58.525,257.664 58.451,265.917 58.354 L 274.750 58.250 274.734 56.917 C 274.698 53.848,273.027 51.806,269.667 50.727 C 268.839 50.461,267.729 50.426,258.233 50.373 L 247.716 50.313 247.609 48.448 C 247.475 46.123,247.471 40.043,247.603 39.551 C 247.740 39.040,247.364 39.056,258.333 39.084 C 266.532 39.104,268.611 39.157,270.333 39.386 M350.167 39.400 C 360.526 40.712,365.670 44.720,367.407 52.833 C 367.645 53.945,367.670 56.053,367.629 71.833 L 367.583 89.583 361.583 89.630 C 354.118 89.688,354.836 89.866,354.822 87.955 C 354.804 85.643,354.852 85.665,352.941 87.076 C 348.461 90.384,342.262 91.876,336.297 91.083 C 333.919 90.767,331.678 90.320,331.566 90.139 C 331.519 90.063,331.347 90.000,331.185 90.000 C 330.809 90.000,328.670 89.068,327.581 88.430 C 323.903 86.275,321.545 83.225,320.223 78.917 C 319.861 77.734,319.791 72.249,320.124 71.083 C 320.229 70.717,320.396 70.088,320.496 69.686 C 321.539 65.499,325.700 61.464,330.647 59.844 C 334.741 58.503,334.995 58.478,345.333 58.386 C 350.329 58.341,354.480 58.243,354.558 58.169 C 355.279 57.480,354.272 53.939,352.993 52.659 C 350.829 50.496,350.509 50.446,338.171 50.374 C 331.168 50.333,327.689 50.255,327.546 50.136 C 327.382 50.000,327.333 48.792,327.333 44.845 C 327.333 39.475,327.358 39.285,328.083 39.118 C 329.027 38.902,348.164 39.146,350.167 39.400 M63.500 49.414 C 58.764 50.300,54.933 53.275,53.564 57.130 C 53.032 58.627,51.927 58.500,65.495 58.500 L 77.500 58.500 77.500 58.061 C 77.500 57.464,76.199 54.772,75.423 53.763 C 72.720 50.248,68.083 48.557,63.500 49.414 M205.167 49.366 C 196.062 50.913,191.165 60.076,194.168 69.945 C 197.665 81.437,213.868 82.869,220.060 72.233 C 222.943 67.280,222.565 59.612,219.222 55.257 C 215.751 50.735,210.374 48.481,205.167 49.366 M69.838 50.037 C 72.873 51.133,74.957 52.964,76.315 55.727 C 77.114 57.353,77.229 57.671,77.186 58.125 C 77.162 58.385,54.075 58.429,53.667 58.169 C 53.461 58.038,53.453 57.951,53.625 57.674 C 53.740 57.489,53.833 57.251,53.833 57.146 C 53.833 56.935,54.522 55.468,54.683 55.333 C 54.738 55.288,54.813 55.159,54.850 55.047 C 54.960 54.712,56.902 52.522,57.099 52.510 C 57.199 52.505,57.499 52.312,57.766 52.082 C 60.355 49.845,66.450 48.813,69.838 50.037 M209.917 49.661 C 216.096 51.016,220.242 55.185,221.524 61.333 C 221.985 63.543,221.737 67.926,221.066 69.442 C 220.938 69.731,220.829 70.068,220.823 70.192 C 220.753 71.800,216.652 76.378,214.164 77.626 C 210.760 79.333,206.091 79.783,203.417 78.661 C 203.233 78.584,202.896 78.474,202.667 78.416 C 199.219 77.549,195.687 73.908,194.404 69.899 C 192.207 63.029,194.199 55.787,199.324 52.012 C 202.185 49.905,206.581 48.929,209.917 49.661 M146.583 68.609 C 143.197 69.300,141.560 70.561,140.888 73.000 C 139.590 77.710,144.365 81.111,151.204 80.347 C 153.462 80.095,157.421 78.643,158.000 77.855 C 158.046 77.793,158.394 77.500,158.774 77.204 C 160.321 76.000,162.060 73.183,162.480 71.200 C 162.736 69.990,162.725 68.665,162.458 68.671 C 162.344 68.673,158.800 68.645,154.583 68.608 C 150.367 68.571,146.767 68.572,146.583 68.609 M258.083 68.769 C 254.690 69.516,252.910 71.557,253.030 74.564 C 253.364 82.959,269.435 82.303,273.739 73.719 C 274.591 72.018,275.179 69.067,274.721 68.784 C 274.303 68.525,259.250 68.512,258.083 68.769 M337.902 68.794 C 334.491 69.484,332.917 71.233,332.917 74.333 C 332.917 82.518,348.019 82.606,353.235 74.451 C 354.233 72.892,355.117 69.499,354.693 68.859 C 354.470 68.523,339.530 68.465,337.902 68.794 M158.607 68.833 C 161.748 68.833,162.312 68.871,162.394 69.086 C 162.512 69.392,162.234 71.706,162.029 72.120 C 161.948 72.283,161.743 72.717,161.573 73.083 C 160.428 75.553,157.461 78.460,155.610 78.925 C 155.365 78.986,155.122 79.104,155.072 79.185 C 155.022 79.267,154.865 79.333,154.724 79.333 C 154.583 79.333,154.231 79.439,153.942 79.569 C 153.653 79.698,153.042 79.850,152.583 79.906 C 152.125 79.961,151.206 80.077,150.542 80.162 C 148.523 80.421,144.694 79.761,143.961 79.028 C 143.854 78.921,143.688 78.833,143.592 78.832 C 143.245 78.830,141.814 77.450,141.458 76.774 C 140.924 75.762,140.919 73.050,141.449 72.083 C 142.954 69.335,144.991 68.631,151.083 68.755 C 153.192 68.798,156.577 68.833,158.607 68.833 M274.539 69.062 C 274.795 69.454,274.344 72.049,273.868 72.925 C 273.771 73.104,273.649 73.362,273.597 73.500 C 273.136 74.719,270.698 77.380,269.333 78.153 C 266.181 79.938,262.129 80.653,258.917 79.990 C 257.925 79.786,256.284 79.290,256.167 79.159 C 256.121 79.108,255.818 78.904,255.493 78.707 C 252.603 76.953,252.425 72.011,255.191 70.307 C 255.539 70.092,255.826 69.860,255.829 69.792 C 255.831 69.723,255.953 69.667,256.099 69.667 C 256.246 69.667,256.564 69.555,256.808 69.419 C 258.006 68.749,259.246 68.671,267.000 68.775 C 272.210 68.845,274.453 68.931,274.539 69.062 M354.364 68.828 C 354.988 68.855,354.185 72.465,353.195 74.083 C 351.419 76.984,348.304 79.124,344.667 79.939 C 343.380 80.228,339.623 80.278,338.947 80.016 C 338.689 79.915,338.295 79.833,338.070 79.833 C 337.846 79.833,337.532 79.763,337.373 79.677 C 337.214 79.591,336.715 79.347,336.265 79.135 C 331.070 76.690,332.182 70.184,337.998 68.994 C 339.020 68.785,350.611 68.668,354.364 68.828 " stroke="none" fill="#a6aeb4" fill-rule="evenodd"></path><path id="path4" d="M222.224 19.627 C 222.080 19.719,222.037 22.664,222.057 31.117 C 222.087 44.165,222.211 43.269,220.553 42.022 C 218.198 40.249,214.680 38.793,210.483 37.853 C 209.275 37.582,204.259 37.452,202.667 37.650 C 189.509 39.286,180.170 50.465,180.170 64.583 C 180.168 82.188,195.703 94.756,212.167 90.470 C 212.854 90.291,213.706 90.072,214.060 89.984 C 215.823 89.544,218.889 87.916,221.016 86.291 C 222.058 85.495,222.167 85.650,222.167 87.927 C 222.167 89.873,221.395 89.687,229.250 89.630 L 235.583 89.583 235.583 54.583 L 235.583 19.583 229.000 19.543 C 225.379 19.521,222.330 19.559,222.224 19.627 M235.399 19.930 C 235.454 20.075,235.500 35.714,235.500 54.684 L 235.500 89.174 235.095 89.358 C 234.804 89.491,232.967 89.501,228.554 89.396 L 222.417 89.250 222.333 87.418 C 222.233 85.208,222.125 85.128,220.711 86.215 C 219.170 87.400,215.738 89.333,215.176 89.333 C 215.085 89.333,214.765 89.439,214.464 89.568 C 213.860 89.827,212.612 90.160,210.583 90.603 C 208.956 90.959,202.618 91.012,201.250 90.682 C 200.792 90.571,200.117 90.423,199.750 90.353 C 197.053 89.837,192.608 87.686,190.599 85.925 C 190.333 85.691,190.070 85.500,190.016 85.500 C 189.849 85.499,186.945 82.627,186.388 81.912 C 185.630 80.940,184.000 78.496,184.000 78.331 C 184.000 78.254,183.906 78.090,183.792 77.968 C 183.389 77.537,181.837 73.814,181.480 72.423 C 179.958 66.485,180.163 59.657,182.008 54.833 C 182.201 54.329,182.419 53.724,182.492 53.489 C 182.566 53.253,182.702 52.916,182.795 52.739 C 182.887 52.562,183.103 52.117,183.273 51.750 C 183.444 51.383,183.627 51.046,183.680 51.000 C 183.733 50.954,183.947 50.572,184.155 50.152 C 186.383 45.640,192.419 40.697,197.833 38.951 C 198.246 38.818,198.883 38.610,199.250 38.489 C 199.617 38.368,200.292 38.218,200.750 38.154 C 201.208 38.091,202.221 37.946,203.000 37.831 C 205.215 37.505,209.637 37.800,211.958 38.429 C 213.980 38.977,214.778 39.220,215.250 39.428 C 218.136 40.703,219.721 41.594,220.905 42.607 C 221.265 42.915,221.734 43.167,221.947 43.167 L 222.333 43.167 222.333 31.528 C 222.333 25.126,222.383 19.839,222.444 19.778 C 222.715 19.507,235.293 19.655,235.399 19.930 M10.500 26.636 L 9.917 26.750 9.917 50.333 C 9.917 77.827,9.891 77.452,12.039 81.750 C 13.919 85.511,18.083 89.123,21.565 90.011 C 21.850 90.084,22.496 90.262,23.000 90.407 C 26.743 91.481,32.297 91.522,36.083 90.503 C 38.658 89.810,38.497 89.866,41.083 88.753 C 43.675 87.638,43.682 87.625,42.399 86.264 C 40.399 84.142,38.670 81.620,37.492 79.106 C 36.773 77.573,36.666 77.477,35.917 77.701 C 28.902 79.805,24.880 78.190,23.758 72.818 C 23.494 71.558,23.334 50.569,23.585 50.164 C 23.649 50.061,26.148 50.000,30.333 50.000 C 35.301 50.000,37.011 49.950,37.103 49.801 C 37.261 49.547,37.413 40.006,37.269 39.432 L 37.160 39.000 30.346 39.000 L 23.532 39.000 23.474 33.008 C 23.439 29.312,23.353 26.953,23.250 26.850 C 23.055 26.655,11.402 26.460,10.500 26.636 M294.833 26.648 L 293.083 26.750 293.032 49.917 C 292.976 75.583,292.964 75.259,294.108 79.083 C 294.376 79.979,294.389 80.012,295.152 81.712 C 298.520 89.210,308.480 92.958,318.667 90.560 C 321.551 89.881,321.847 89.602,320.671 88.670 C 318.920 87.283,317.050 84.029,316.097 80.712 L 315.534 78.750 313.691 78.642 C 310.016 78.425,308.276 77.162,307.071 73.833 C 306.668 72.722,306.437 63.827,306.611 56.167 L 306.750 50.083 313.611 50.000 C 317.385 49.954,320.535 49.854,320.611 49.778 C 320.735 49.655,320.918 39.221,320.798 39.130 C 320.772 39.109,317.600 39.053,313.750 39.005 L 306.750 38.917 306.667 32.889 C 306.621 29.574,306.532 26.810,306.469 26.747 C 306.317 26.595,297.071 26.517,294.833 26.648 M23.167 32.800 C 23.167 37.219,23.219 38.819,23.367 38.967 C 23.516 39.116,25.281 39.167,30.283 39.167 L 37.000 39.167 37.000 44.500 L 37.000 49.833 30.283 49.833 C 25.281 49.833,23.516 49.884,23.367 50.033 C 23.125 50.275,23.094 70.780,23.334 72.000 C 23.685 73.792,23.842 74.308,24.326 75.272 C 26.133 78.868,30.026 79.779,35.903 77.980 C 36.376 77.835,37.000 78.142,37.000 78.519 C 37.000 78.649,37.995 80.729,38.390 81.424 C 38.900 82.324,41.143 85.286,42.013 86.212 C 42.550 86.783,42.992 87.305,42.995 87.373 C 43.001 87.528,41.737 88.333,41.487 88.333 C 41.385 88.333,41.102 88.442,40.859 88.574 C 40.616 88.707,40.154 88.921,39.833 89.051 C 39.512 89.180,39.025 89.383,38.750 89.500 C 38.475 89.617,37.987 89.774,37.667 89.847 C 36.786 90.050,35.646 90.343,35.055 90.520 C 33.416 91.011,27.179 91.090,25.167 90.645 C 24.754 90.554,24.079 90.414,23.667 90.333 C 22.193 90.047,21.258 89.709,19.417 88.793 C 16.029 87.107,13.381 84.334,11.993 81.016 C 11.702 80.320,11.398 79.600,11.318 79.417 C 10.293 77.067,10.278 76.670,10.219 50.792 L 10.164 26.833 16.666 26.833 L 23.167 26.833 23.167 32.800 M306.232 27.097 C 306.288 27.242,306.333 29.933,306.333 33.077 C 306.333 37.648,306.378 38.830,306.556 38.978 C 306.710 39.105,308.903 39.176,313.598 39.206 L 320.417 39.250 320.463 44.167 C 320.489 46.871,320.469 49.252,320.419 49.458 L 320.327 49.833 313.517 49.833 C 307.833 49.833,306.675 49.873,306.511 50.070 C 306.089 50.578,306.358 72.548,306.801 73.825 C 308.014 77.320,310.628 79.126,314.263 78.979 C 315.316 78.937,315.435 79.010,315.574 79.790 C 315.862 81.411,317.518 85.342,318.265 86.180 C 318.394 86.325,318.500 86.494,318.500 86.556 C 318.500 86.718,319.281 87.618,320.225 88.544 C 321.098 89.401,321.139 89.741,320.388 89.877 C 320.129 89.924,319.692 90.042,319.417 90.140 C 317.062 90.976,310.747 91.235,307.917 90.611 C 306.474 90.293,304.949 89.877,304.417 89.656 C 304.233 89.580,303.671 89.351,303.167 89.148 C 302.662 88.944,302.132 88.677,301.987 88.555 C 301.842 88.433,301.669 88.333,301.603 88.333 C 301.175 88.333,298.482 86.065,297.331 84.735 C 296.253 83.490,294.333 79.743,294.333 78.885 C 294.333 78.704,294.277 78.500,294.208 78.431 C 294.003 78.227,293.663 76.388,293.418 74.167 C 293.181 72.011,293.044 28.059,293.272 27.208 L 293.372 26.833 299.752 26.833 C 305.415 26.833,306.142 26.863,306.232 27.097 M62.250 37.670 C 60.992 37.821,59.473 38.103,58.781 38.316 C 53.141 40.049,50.374 41.618,47.000 44.997 C 43.356 48.648,40.822 53.213,40.014 57.582 C 39.919 58.098,39.810 58.571,39.771 58.635 C 38.888 60.093,39.272 69.844,40.318 72.539 C 40.399 72.747,40.601 73.367,40.767 73.917 C 44.172 85.182,56.557 92.654,69.083 90.999 C 78.472 89.758,84.404 86.014,88.744 78.591 C 90.367 75.815,90.359 75.594,88.631 75.218 C 88.055 75.093,87.096 74.886,86.500 74.758 C 85.904 74.630,84.329 74.290,83.000 74.003 C 77.638 72.845,78.312 72.762,76.871 74.754 C 75.473 76.686,72.914 78.501,70.833 79.036 C 70.512 79.118,69.950 79.266,69.583 79.365 C 66.433 80.215,61.394 79.420,58.579 77.630 C 55.903 75.928,52.253 69.919,52.889 68.261 C 52.979 68.028,54.979 67.997,72.203 67.959 L 91.417 67.917 91.463 64.500 C 91.632 51.880,84.162 41.626,72.417 38.356 C 69.775 37.621,65.229 37.314,62.250 37.670 M68.167 37.833 C 68.762 37.919,69.587 38.032,70.000 38.085 C 71.223 38.243,73.872 38.959,74.917 39.415 C 76.958 40.306,76.706 40.189,78.054 40.869 C 78.437 41.062,78.989 41.396,79.281 41.610 C 79.572 41.825,79.866 42.000,79.933 42.000 C 80.168 42.000,82.598 44.074,83.876 45.366 C 86.477 47.995,88.615 51.480,89.736 54.917 C 89.885 55.375,90.071 55.900,90.149 56.083 C 90.323 56.492,90.747 58.431,91.083 60.346 C 91.404 62.182,91.435 67.415,91.125 67.615 C 91.010 67.689,82.329 67.787,71.833 67.833 L 52.750 67.917 52.697 68.467 C 52.598 69.499,54.516 74.333,55.025 74.333 C 55.103 74.333,55.167 74.410,55.167 74.504 C 55.167 74.801,56.544 76.249,58.076 77.564 C 58.644 78.051,60.804 79.167,61.179 79.167 C 61.319 79.167,61.505 79.235,61.592 79.319 C 61.841 79.558,64.499 80.000,65.692 80.000 C 70.928 80.000,74.772 78.138,77.583 74.240 C 78.298 73.249,78.300 73.248,79.500 73.514 C 81.078 73.863,82.612 74.183,83.333 74.315 C 83.746 74.390,84.421 74.531,84.833 74.628 C 85.246 74.725,86.183 74.931,86.917 75.086 C 90.225 75.785,90.045 75.598,89.125 77.367 C 86.222 82.950,81.293 87.417,76.107 89.165 C 75.544 89.354,74.933 89.573,74.750 89.649 C 74.319 89.830,72.955 90.176,72.000 90.348 C 71.587 90.422,70.837 90.569,70.333 90.675 C 68.749 91.008,62.157 90.965,60.583 90.611 C 58.560 90.157,57.306 89.816,56.725 89.562 C 56.436 89.436,56.116 89.333,56.014 89.333 C 55.912 89.333,55.699 89.264,55.539 89.179 C 55.380 89.094,54.500 88.657,53.583 88.207 C 51.869 87.365,50.387 86.470,49.683 85.852 C 49.463 85.658,49.233 85.500,49.173 85.500 C 48.652 85.500,44.608 80.901,43.380 78.913 C 42.694 77.803,41.000 74.147,41.000 73.776 C 41.000 73.635,40.934 73.479,40.853 73.429 C 40.771 73.378,40.655 73.001,40.593 72.589 C 40.531 72.178,40.410 71.797,40.324 71.744 C 40.237 71.691,40.167 71.403,40.167 71.104 C 40.167 70.805,40.043 70.153,39.891 69.655 C 39.488 68.330,39.488 60.670,39.891 59.345 C 40.043 58.847,40.167 58.158,40.167 57.813 C 40.167 57.468,40.235 57.144,40.319 57.092 C 40.403 57.041,40.524 56.683,40.589 56.297 C 40.655 55.912,40.767 55.481,40.839 55.340 C 40.911 55.199,41.101 54.708,41.260 54.250 C 42.359 51.091,44.333 48.015,46.998 45.311 C 48.192 44.101,48.847 43.532,50.583 42.195 C 50.675 42.124,50.862 42.013,51.000 41.948 C 51.137 41.883,51.475 41.684,51.750 41.507 C 53.082 40.647,56.007 39.348,57.583 38.917 C 58.133 38.766,58.958 38.539,59.417 38.413 C 59.875 38.286,60.925 38.096,61.750 37.990 C 62.575 37.885,63.325 37.775,63.417 37.746 C 63.793 37.627,67.160 37.689,68.167 37.833 M96.410 39.208 C 96.367 39.323,96.350 50.704,96.374 64.500 L 96.417 89.583 102.917 89.624 C 106.781 89.647,109.517 89.600,109.664 89.506 C 109.877 89.371,109.914 87.967,109.936 79.216 C 109.958 70.695,110.005 68.831,110.233 67.500 C 110.712 64.710,111.263 62.510,111.765 61.391 C 111.894 61.103,112.000 60.812,112.000 60.746 C 112.000 60.680,112.289 60.048,112.642 59.343 C 115.354 53.923,119.804 51.049,126.378 50.469 C 128.963 50.241,128.689 50.986,128.630 44.333 L 128.583 39.083 127.500 39.031 C 121.891 38.763,115.201 41.808,111.183 46.458 C 109.959 47.876,110.000 47.973,110.000 43.678 C 110.000 41.575,109.927 39.663,109.837 39.428 L 109.675 39.000 103.082 39.000 C 97.961 39.000,96.472 39.047,96.410 39.208 M135.833 39.126 C 135.696 39.176,135.528 39.299,135.461 39.400 C 135.314 39.620,135.289 49.691,135.434 50.070 C 135.525 50.306,136.546 50.334,145.226 50.338 C 150.556 50.341,155.455 50.414,156.112 50.499 C 160.132 51.021,162.667 53.622,162.667 57.225 C 162.667 58.387,163.051 58.333,154.758 58.337 C 147.022 58.341,144.134 58.472,142.040 58.916 C 133.661 60.689,129.119 64.925,127.919 72.083 C 126.631 79.768,130.481 86.435,138.083 89.683 C 140.985 90.923,146.613 91.594,149.833 91.084 L 151.250 90.859 148.917 90.943 C 146.465 91.031,143.158 90.824,141.750 90.494 C 140.653 90.238,139.167 89.820,138.750 89.652 C 138.567 89.578,138.004 89.349,137.500 89.142 C 125.107 84.065,124.639 66.408,136.750 60.843 C 137.208 60.633,137.696 60.406,137.833 60.340 C 137.971 60.274,138.514 60.094,139.041 59.940 C 143.270 58.702,143.681 58.667,153.706 58.667 C 163.913 58.667,163.090 58.821,162.957 56.927 C 162.750 53.959,160.967 51.653,158.141 50.699 C 156.562 50.165,152.593 49.985,143.610 50.038 C 139.470 50.063,135.990 50.023,135.875 49.948 C 135.632 49.791,135.571 39.909,135.811 39.530 C 135.925 39.351,137.854 39.326,146.350 39.397 C 159.018 39.502,160.041 39.590,164.333 40.939 C 165.642 41.350,169.000 42.968,169.000 43.187 C 169.000 43.255,169.145 43.357,169.322 43.413 C 170.612 43.823,173.415 47.522,174.375 50.083 C 175.342 52.665,175.368 53.200,175.441 71.877 L 175.509 89.172 175.099 89.327 C 174.855 89.420,172.332 89.442,168.845 89.382 L 163.000 89.280 163.000 87.552 C 163.000 85.773,162.819 85.340,162.253 85.765 C 162.143 85.848,161.442 86.379,160.697 86.944 C 159.952 87.509,159.040 88.105,158.671 88.268 C 158.302 88.431,158.000 88.625,158.000 88.699 C 158.000 88.773,157.880 88.833,157.734 88.833 C 157.588 88.833,157.269 88.938,157.026 89.065 C 156.088 89.557,154.408 90.093,152.333 90.561 C 151.568 90.734,151.405 90.810,151.778 90.819 C 152.481 90.838,155.012 90.198,156.250 89.689 C 158.145 88.909,160.294 87.649,162.039 86.293 C 162.654 85.815,162.693 85.894,162.813 87.868 L 162.917 89.583 169.250 89.583 L 175.583 89.583 175.628 72.250 C 175.680 51.932,175.644 51.457,173.800 48.167 C 170.897 42.989,166.509 40.539,158.083 39.391 C 156.102 39.121,136.494 38.888,135.833 39.126 M248.059 39.122 C 247.862 39.157,247.657 39.350,247.603 39.551 C 247.471 40.043,247.475 46.123,247.609 48.448 L 247.716 50.313 258.233 50.373 C 267.729 50.426,268.839 50.461,269.667 50.727 C 273.027 51.806,274.698 53.848,274.734 56.917 L 274.750 58.250 265.917 58.354 C 257.664 58.451,256.278 58.525,253.837 58.996 C 252.910 59.175,252.747 59.221,250.833 59.843 C 243.831 62.117,239.991 67.419,240.004 74.790 C 240.018 82.200,244.004 87.485,251.583 90.142 C 258.554 92.585,268.555 90.994,273.808 86.604 C 274.755 85.813,274.833 85.900,274.833 87.739 C 274.833 89.847,274.234 89.678,281.520 89.627 L 287.750 89.583 287.750 71.333 C 287.750 53.115,287.749 53.081,287.389 51.813 C 285.257 44.317,280.314 40.715,270.333 39.386 C 268.397 39.128,249.303 38.902,248.059 39.122 M328.083 39.118 C 327.358 39.285,327.333 39.475,327.333 44.845 C 327.333 48.792,327.382 50.000,327.546 50.136 C 327.689 50.255,331.168 50.333,338.171 50.374 C 350.509 50.446,350.829 50.496,352.993 52.659 C 354.272 53.939,355.279 57.480,354.558 58.169 C 354.480 58.243,350.329 58.341,345.333 58.386 C 334.995 58.478,334.741 58.503,330.647 59.844 C 325.700 61.464,321.539 65.499,320.496 69.686 C 320.396 70.088,320.229 70.717,320.124 71.083 C 319.791 72.249,319.861 77.734,320.223 78.917 C 321.545 83.225,323.903 86.275,327.581 88.430 C 328.670 89.068,330.809 90.000,331.185 90.000 C 331.347 90.000,331.519 90.063,331.566 90.139 C 331.678 90.320,333.919 90.767,336.297 91.083 C 342.262 91.876,348.461 90.384,352.941 87.076 C 354.852 85.665,354.804 85.643,354.822 87.955 C 354.836 89.866,354.118 89.688,361.583 89.630 L 367.583 89.583 367.629 71.833 C 367.678 52.701,367.707 53.464,366.820 50.524 C 365.474 46.067,361.701 42.455,356.647 40.785 C 352.208 39.318,350.347 39.147,338.250 39.089 C 332.842 39.063,328.267 39.076,328.083 39.118 M109.532 39.208 C 109.549 39.231,109.606 41.200,109.657 43.583 C 109.760 48.381,109.822 48.594,110.748 47.333 C 112.918 44.378,116.917 41.574,120.583 40.436 C 122.231 39.926,123.267 39.685,124.250 39.584 C 124.800 39.528,125.840 39.413,126.562 39.329 C 128.661 39.085,128.500 38.644,128.500 44.652 C 128.500 50.673,128.765 50.075,126.000 50.303 C 123.924 50.475,122.538 50.741,121.225 51.221 C 120.441 51.507,118.626 52.364,118.500 52.507 C 118.454 52.558,118.117 52.783,117.750 53.006 C 114.874 54.751,112.363 58.385,111.073 62.667 C 110.921 63.171,110.693 63.921,110.564 64.333 C 110.436 64.746,110.332 65.322,110.333 65.614 C 110.333 65.906,110.251 66.356,110.151 66.614 C 109.807 67.496,109.635 71.915,109.609 80.528 C 109.595 85.264,109.542 89.180,109.492 89.230 C 109.285 89.438,97.248 89.555,96.871 89.353 L 96.500 89.155 96.500 64.483 C 96.500 47.795,96.556 39.707,96.673 39.489 C 96.823 39.208,109.323 38.935,109.532 39.208 M270.417 39.645 C 272.564 39.873,273.887 40.148,276.333 40.873 C 279.459 41.799,282.511 43.773,284.325 46.042 C 285.136 47.057,286.500 49.434,286.500 49.834 C 286.500 49.943,286.604 50.269,286.732 50.558 C 287.530 52.364,287.532 52.406,287.567 71.277 C 287.585 81.027,287.547 89.091,287.481 89.197 C 287.381 89.359,282.094 89.420,275.375 89.336 C 275.222 89.334,275.167 88.873,275.167 87.595 C 275.167 85.884,274.811 85.094,274.354 85.790 C 273.646 86.867,269.120 89.323,266.500 90.052 C 261.537 91.432,254.711 91.226,250.750 89.576 C 245.835 87.530,242.625 84.489,241.257 80.583 C 241.096 80.125,240.904 79.600,240.830 79.417 C 240.064 77.514,240.062 71.770,240.827 69.917 C 240.903 69.733,241.096 69.208,241.257 68.750 C 242.354 65.618,245.032 62.742,248.333 61.151 C 250.155 60.272,250.821 60.000,251.148 60.000 C 251.331 60.000,251.527 59.925,251.583 59.833 C 251.640 59.742,251.823 59.667,251.991 59.667 C 252.158 59.667,252.660 59.560,253.106 59.430 C 255.350 58.775,257.195 58.667,266.061 58.667 L 274.659 58.667 274.944 58.232 C 275.240 57.779,275.055 55.406,274.668 54.695 C 274.585 54.542,274.399 54.151,274.255 53.825 C 273.699 52.566,271.879 51.145,270.167 50.632 C 268.241 50.056,266.355 49.970,257.518 50.055 C 252.807 50.101,248.700 50.097,248.393 50.047 L 247.833 49.956 247.833 44.756 C 247.833 41.896,247.888 39.501,247.955 39.433 C 248.129 39.260,268.610 39.452,270.417 39.645 M350.250 39.642 C 352.360 39.869,355.788 40.580,356.075 40.851 C 356.162 40.933,356.356 41.000,356.506 41.000 C 356.858 41.000,359.018 41.946,360.086 42.567 C 363.201 44.382,365.501 47.256,366.634 50.750 C 367.480 53.359,367.500 53.853,367.500 72.198 L 367.500 89.297 367.054 89.409 C 366.809 89.471,363.996 89.467,360.804 89.402 L 355.000 89.283 355.000 87.553 C 355.000 85.332,354.947 85.311,352.958 86.777 C 352.105 87.406,350.734 88.246,349.912 88.643 C 349.089 89.041,348.204 89.471,347.945 89.600 C 347.685 89.728,347.324 89.833,347.142 89.833 C 346.960 89.833,346.648 89.923,346.447 90.032 C 346.247 90.141,345.746 90.286,345.333 90.354 C 344.921 90.422,344.208 90.567,343.750 90.676 C 342.632 90.943,335.868 90.943,334.750 90.676 C 334.292 90.567,333.579 90.413,333.167 90.333 C 332.353 90.176,331.209 89.840,330.417 89.526 C 329.195 89.042,328.566 88.758,328.333 88.585 C 328.196 88.484,327.802 88.256,327.458 88.079 C 327.115 87.902,326.833 87.700,326.833 87.629 C 326.833 87.558,326.747 87.500,326.642 87.500 C 326.452 87.500,325.547 86.794,324.575 85.887 C 323.222 84.625,321.352 81.665,320.855 80.000 C 320.760 79.679,320.574 79.042,320.442 78.583 C 318.468 71.728,321.962 64.182,328.583 61.002 C 333.008 58.877,334.558 58.667,345.805 58.667 L 354.675 58.667 354.852 58.208 C 355.582 56.322,354.160 53.002,352.032 51.624 C 349.736 50.136,348.694 50.027,337.207 50.062 C 332.325 50.077,328.182 50.035,327.999 49.967 C 327.664 49.843,327.457 40.406,327.772 39.586 C 327.893 39.272,347.258 39.320,350.250 39.642 M62.833 49.263 C 62.237 49.390,61.620 49.571,61.461 49.664 C 61.301 49.757,61.058 49.833,60.920 49.833 C 60.566 49.833,58.282 51.052,57.448 51.685 C 54.941 53.591,52.997 56.655,53.149 58.459 C 53.163 58.626,55.687 58.660,65.458 58.626 L 77.750 58.583 77.723 58.016 C 77.708 57.704,77.618 57.291,77.523 57.099 C 77.429 56.907,77.187 56.375,76.987 55.917 C 75.873 53.374,73.562 51.062,71.167 50.096 C 70.754 49.930,70.267 49.727,70.083 49.646 C 68.820 49.085,64.681 48.867,62.833 49.263 M204.917 49.161 C 204.733 49.244,204.229 49.359,203.796 49.416 C 203.362 49.473,202.964 49.590,202.911 49.676 C 202.857 49.763,202.645 49.833,202.439 49.833 C 202.232 49.833,201.918 49.943,201.740 50.078 C 201.562 50.213,201.317 50.325,201.196 50.328 C 199.852 50.360,196.102 54.046,194.864 56.552 C 193.260 59.800,192.615 64.475,193.326 67.708 C 193.422 68.144,193.569 68.820,193.654 69.210 C 194.291 72.142,196.483 75.282,199.417 77.465 C 199.601 77.602,201.723 78.640,202.250 78.850 C 204.829 79.880,210.562 79.882,212.631 78.854 C 212.788 78.775,213.442 78.461,214.083 78.154 C 223.985 73.427,225.209 58.788,216.278 51.909 C 215.483 51.297,212.706 49.833,212.338 49.833 C 212.189 49.833,211.995 49.764,211.908 49.679 C 211.431 49.216,205.728 48.793,204.917 49.161 M68.095 49.411 C 71.149 49.951,73.620 51.419,75.423 53.763 C 76.199 54.772,77.500 57.464,77.500 58.061 L 77.500 58.500 65.495 58.500 C 51.927 58.500,53.032 58.627,53.564 57.130 C 55.452 51.815,62.005 48.333,68.095 49.411 M209.529 49.346 C 217.484 50.953,221.917 56.405,221.917 64.583 C 221.917 71.985,217.837 77.244,210.583 79.191 C 208.434 79.768,204.369 79.391,201.842 78.380 C 190.611 73.888,190.384 55.311,201.500 50.450 C 204.022 49.347,207.303 48.896,209.529 49.346 M146.083 68.456 C 145.717 68.492,145.345 68.592,145.258 68.678 C 145.171 68.763,144.971 68.833,144.814 68.833 C 143.482 68.833,141.349 70.809,140.726 72.619 C 138.525 79.013,148.101 83.143,155.982 79.200 C 158.256 78.062,158.249 78.067,159.299 77.032 C 162.139 74.231,164.114 69.082,162.572 68.496 C 162.166 68.341,147.589 68.306,146.083 68.456 M258.250 68.456 C 257.883 68.492,257.512 68.592,257.425 68.678 C 257.338 68.763,257.150 68.836,257.008 68.839 C 255.693 68.868,253.466 70.937,252.905 72.653 C 251.840 75.909,253.731 78.888,257.750 80.285 C 258.821 80.658,263.783 80.708,265.083 80.360 C 270.753 78.842,274.174 75.465,275.010 70.562 C 275.250 69.156,275.146 68.578,274.627 68.439 C 274.221 68.330,259.356 68.346,258.250 68.456 M338.333 68.442 C 330.773 69.592,330.468 78.289,337.917 80.352 C 339.513 80.795,344.319 80.645,345.917 80.104 C 347.439 79.588,349.667 78.522,349.667 78.309 C 349.667 78.231,349.778 78.167,349.914 78.167 C 350.244 78.167,352.664 75.776,353.288 74.833 C 354.631 72.805,355.490 69.104,354.744 68.559 C 354.455 68.347,339.651 68.242,338.333 68.442 M162.458 68.671 C 162.725 68.665,162.736 69.990,162.480 71.200 C 162.060 73.183,160.321 76.000,158.774 77.204 C 158.394 77.500,158.046 77.793,158.000 77.855 C 157.421 78.643,153.462 80.095,151.204 80.347 C 144.365 81.111,139.590 77.710,140.888 73.000 C 141.560 70.561,143.197 69.300,146.583 68.609 C 146.767 68.572,150.367 68.571,154.583 68.608 C 158.800 68.645,162.344 68.673,162.458 68.671 M274.721 68.784 C 275.179 69.067,274.591 72.018,273.739 73.719 C 270.879 79.422,262.090 82.256,256.189 79.377 C 250.995 76.843,252.206 70.063,258.083 68.769 C 259.250 68.512,274.303 68.525,274.721 68.784 M354.693 68.859 C 355.117 69.499,354.233 72.892,353.235 74.451 C 350.796 78.264,346.586 80.379,341.417 80.387 C 335.836 80.396,332.917 78.317,332.917 74.333 C 332.917 71.233,334.491 69.484,337.902 68.794 C 339.530 68.465,354.470 68.523,354.693 68.859 " stroke="none" fill="#8c9497" fill-rule="evenodd"></path></g></svg>