<svg width="0" height="0" class="hidden">
  <symbol xmlns="http://www.w3.org/2000/svg" viewBox="0 0 446.25 446.25" id="find">
    <path d="M318.75 280.5h-20.4l-7.649-7.65c25.5-28.05 40.8-66.3 40.8-107.1C331.5 73.95 257.55 0 165.75 0S0 73.95 0 165.75 73.95 331.5 165.75 331.5c40.8 0 79.05-15.3 107.1-40.8l7.65 7.649v20.4L408 446.25 446.25 408l-127.5-127.5zm-153 0C102 280.5 51 229.5 51 165.75S102 51 165.75 51 280.5 102 280.5 165.75s-51 114.75-114.75 114.75z"></path>
  </symbol>
  <symbol xmlns="http://www.w3.org/2000/svg" viewBox="0 0 512 512" id="github">
    <path d="M256 0C115.3 0 0 116.3 0 257c0 139.883 114.25 255 256 255 141.574 0 256-114.945 256-255C512 116.3 396.7 0 256 0zm45 477.5c-14.398 3-29.7 4.5-45 4.5s-30.602-1.5-45-4.5v-70.2c0-16.8 4.5-22.8 10.5-30.902 3.055-3.492 4.898-6.625 18.598-27.296L217 345.5c-59.402-8.7-82.8-39.602-92.102-63.602-12-32.097-5.699-72.3 15.903-97.796 3.3-3.903 6-10.504 3.601-17.403-4.504-13.8-3.902-35.699-.902-44.101 15.906 2.273 32.262 13.668 45.902 21.902 6.286 3.668 9.582 2.7 12.598 3 10.96-2.281 28.059-7.8 54.3-7.8 16.2 0 33.302 2.398 50.102 7.198 3.004-.07 7.832 2.485 16.2-2.398 14.257-8.687 30.058-19.691 45.898-21.902 3 8.402 3.602 30.3-.898 44.101-2.403 6.899.296 13.5 3.601 17.403 21.598 25.5 27.899 65.699 15.899 97.796-9.301 24-32.7 54.903-92.102 63.602l-23.098 3.602c14.16 21.367 15.653 23.93 18.602 27.296C296.5 384.5 301 390.5 301 407.301zm30-8.7v-61.5c0-17.1-3.602-28.5-8.402-36.902 45.601-12.296 78.004-39.3 92.402-78 15.3-40.796 8.402-89.398-17.102-123 4.504-20.097 4.504-52.199-6.296-67.199C386.8 95.602 380.199 92 371.8 92h-.301c-23.262 1.258-41.57 12.973-61.2 24.898-18-4.8-36.3-7.199-54.6-7.199-18.598 0-37.2 2.7-53.696 7.2C181.34 104.437 163.207 93.226 139.3 92c-7.5 0-14.102 3.602-18.903 10.2-10.796 15-10.796 47.1-6.296 67.198-25.504 33.602-32.403 82.5-17.102 123 14.398 38.7 46.8 65.704 92.402 78-3.722 6.512-6.668 14.915-7.828 26.286-9.21 3.175-17.199 4.21-24.629 2.027-7.836-2.316-13.941-7.547-19.246-16.469-11.914-20.015-32.207-36.355-55.312-34.23l2.636 29.883c10.7-.98 21.348 10.34 26.88 19.671 9.124 15.368 21.417 25.446 36.546 29.914 11.23 3.31 21.496 3.23 32.551.872V468.8C93.7 438.199 30 354.8 30 257 30 132.8 131.8 30 256 30s226 102.8 226 227c0 97.8-63.7 181.2-151 211.8zm0 0"></path>
  </symbol>
  <symbol xmlns="http://www.w3.org/2000/svg" viewBox="0 0 512 512" id="linkedin">
    <path d="M160.008 423h-70V197h70zm6.984-298.004c0-22.629-18.36-40.996-40.976-40.996C103.312 84 85 102.367 85 124.996 85 147.633 103.313 166 126.016 166c22.617 0 40.976-18.367 40.976-41.004zM422 298.664C422 237.996 409.184 193 338.312 193c-34.054 0-56.914 17.031-66.246 34.742H272V197h-68v226h68V310.79c0-29.388 7.48-57.856 43.906-57.856 35.93 0 37.094 33.605 37.094 59.722V423h69zM512 452V60c0-33.086-26.914-60-60-60H60C26.914 0 0 26.914 0 60v392c0 33.086 26.914 60 60 60h392c33.086 0 60-26.914 60-60zM452 40c11.027 0 20 8.973 20 20v392c0 11.027-8.973 20-20 20H60c-11.027 0-20-8.973-20-20V60c0-11.027 8.973-20 20-20zm0 0"></path>
  </symbol>
  <symbol xmlns="http://www.w3.org/2000/svg" viewBox="0 0 512.125 512.125" id="tel">
    <path d="M330.968 512.125c-205.193-1.541-445.585-300.526-269.925-476.33a281.07 281.07 0 0119.634-18.141C95.03 5.613 113.215-.597 131.871.167c18.731.767 36.343 8.499 49.591 21.77.086.086.172.174.257.262l33.836 35.161c36.618 35.83 23.641 100.444-24.099 119.141-14.779 6.028-24.207 11.381-26.726 13.192-18.632 18.985-30.493 49.833 39.198 119.645 22.615 22.654 56.11 52.771 85.766 52.771 12.031 0 23.074-5.091 33.734-15.558 1.387-2.033 6.178-10.195 12.357-25.591 18.506-48.067 83.246-61.43 119.208-24.557l34.753 33.631c.083.08.165.161.246.242 13.195 13.218 20.916 30.781 21.74 49.454a74.584 74.584 0 01-17.275 51.177 281.38 281.38 0 01-16.852 18.457c-41.385 41.457-91.486 62.76-146.637 62.761zM128.82 40.053c-7.906 0-15.859 2.729-22.435 8.245a241.123 241.123 0 00-16.83 15.55C-4.09 158.962 47.379 288.884 137.35 377.833c89.161 88.712 218.43 137.217 311.948 43.27a241.372 241.372 0 0014.445-15.821c11.544-13.837 10.696-33.86-1.95-46.638l-34.732-33.612c-.083-.08-.165-.161-.246-.242-7.96-7.974-18.851-11.257-29.874-9.005-11.059 2.257-19.818 9.575-24.033 20.076-2.796 6.964-12.543 30.314-20.582 38.367-18.469 18.5-39.541 27.88-62.631 27.88-44.029 0-84.091-34.476-114.075-64.511-45.495-43.648-98.076-118.077-38.704-176.664 8.416-8.431 32.311-18.565 39.434-21.47 10.347-4.22 17.558-12.953 19.783-23.958 2.242-11.09-1.046-22.032-9.022-30.022a21.234 21.234 0 01-.257-.262l-33.815-35.14c-6.708-6.658-15.434-10.028-24.219-10.028zm363.067 199.053c-10.234 0-18.959-7.815-19.896-18.206-8.67-96.198-84.782-172.31-180.979-180.979-11.001-.991-19.115-10.713-18.124-21.714.99-11.002 10.719-19.117 21.714-18.124 112.478 8.41 208.816 104.75 217.227 217.226.992 11.001-7.123 20.723-18.124 21.714a19.89 19.89 0 01-1.818.083zm-155.822-.03c10.479-3.496 16.139-14.823 12.643-25.302-7.845-23.514-26.251-42.402-49.236-50.527-10.412-3.682-21.841 1.777-25.521 12.192-3.682 10.414 1.777 21.841 12.191 25.522 11.446 4.046 20.651 13.568 24.623 25.472 2.795 8.378 10.597 13.676 18.969 13.676a19.933 19.933 0 006.331-1.033zm78.574-.173c10.935-1.564 18.53-11.696 16.967-22.631-10.019-70.037-65.93-125.948-135.967-135.967-26.394-2.707-31.787 34.787-5.664 39.597 52.557 7.518 94.515 49.476 102.033 102.033 1.427 9.975 9.982 17.17 19.773 17.17.943.002 1.898-.065 2.858-.202z"></path>
  </symbol>
  <symbol xmlns="http://www.w3.org/2000/svg" viewBox="0 0 512 512" id="user">
    <path d="M256 288.389c-153.837 0-238.56 72.776-238.56 204.925 0 10.321 8.365 18.686 18.686 18.686h439.747c10.321 0 18.686-8.365 18.686-18.686.001-132.142-84.722-204.925-238.559-204.925zM55.492 474.628c7.35-98.806 74.713-148.866 200.508-148.866s193.159 50.06 200.515 148.866H55.492zM256 0c-70.665 0-123.951 54.358-123.951 126.437 0 74.19 55.604 134.54 123.951 134.54s123.951-60.35 123.951-134.534C379.951 54.358 326.665 0 256 0zm0 223.611c-47.743 0-86.579-43.589-86.579-97.168 0-51.611 36.413-89.071 86.579-89.071 49.363 0 86.579 38.288 86.579 89.071 0 53.579-38.836 97.168-86.579 97.168z"></path>
  </symbol>
  <symbol xmlns="http://www.w3.org/2000/svg" viewBox="0 0 512 512" id="why">
    <path d="M256 392c-33.084 0-60 26.916-60 60s26.916 60 60 60 60-26.916 60-60-26.916-60-60-60zm0 90c-16.542 0-30-13.458-30-30s13.458-30 30-30 30 13.458 30 30-13.458 30-30 30zm0-482c-86.019 0-156 69.981-156 156v15h120v-15c0-19.851 16.149-36 36-36s36 16.149 36 36c0 10.578-4.643 20.59-12.74 27.471L196 254.258V362h120v-52.258l40.976-34.837C391.944 245.191 412 201.853 412 156 412 69.981 342.019 0 256 0zm81.547 252.047L286 295.871V332h-60v-63.871l72.688-61.8C313.503 193.74 322 175.396 322 156c0-36.393-29.607-66-66-66-31.235 0-57.471 21.81-64.281 51h-60.832C138.328 78.569 191.599 30 256 30c69.477 0 126 56.523 126 126 0 37.034-16.201 72.04-44.453 96.047z"></path>
  </symbol>
  <symbol xmlns="http://www.w3.org/2000/svg" viewBox="0 0 512 512" id="pdf">
    <path d="M368 256h-64c-8.837 0-16 7.163-16 16v128c0 8.837 7.163 16 16 16h64c17.673 0 32-14.327 32-32v-96c0-17.673-14.327-32-32-32zm0 128h-48v-96h48v96zm144-96v-32h-80c-8.837 0-16 7.163-16 16v144h32v-64h64v-32h-64v-32h64z"></path>
    <path d="M32 464V48c0-8.837 7.163-16 16-16h240v64c0 17.673 14.327 32 32 32h64v48h32v-64a15.997 15.997 0 00-4.64-11.36l-96-96A16.001 16.001 0 00304 0H48C21.49 0 0 21.491 0 48v416c0 26.51 21.49 48 48 48h112v-32H48c-8.836 0-16-7.163-16-16z"></path>
    <path d="M240 256h-64c-8.837 0-16 7.163-16 16v144h32v-48h48c17.673 0 32-14.327 32-32v-48c0-17.673-14.327-32-32-32zm0 80h-48v-48h48v48z"></path>
  </symbol>
  <symbol xmlns="http://www.w3.org/2000/svg" viewBox="0 0 512 512" id="email">
    <path d="M392 458H120C53.832 458 0 404.168 0 338V174C0 107.832 53.832 54 120 54h272c66.168 0 120 53.832 120 120v164c0 66.168-53.832 120-120 120zM120 94c-44.112 0-80 35.888-80 80v164c0 44.112 35.888 80 80 80h272c44.112 0 80-35.888 80-80V174c0-44.112-35.888-80-80-80zm209.286 197.406l98.855-75.512c8.778-6.705 10.458-19.256 3.753-28.034-6.706-8.778-19.256-10.458-28.034-3.753l-98.843 75.503c-28.541 21.769-68.4 21.785-96.96.055l-95.781-74.455c-8.721-6.78-21.287-5.205-28.065 3.516-6.779 8.721-5.205 21.286 3.516 28.065l95.855 74.512.146.112c21.424 16.34 47.094 24.509 72.77 24.509s51.357-8.174 72.788-24.518z"></path>
  </symbol>
</svg>