<svg width="0" height="0" class="hidden">
  <symbol xmlns="http://www.w3.org/2000/svg" viewBox="0 0 675.7 614.9" id="affinity">
    <path d="M263.7 0h106.4l8.9 15.5h30.5l266.1 461-57.3 97.7H385.4l23.6 40.7h-10.3l-23.6-40.7H86l-14.8-26H52.9L0 456.6h.1L67.9 339l62.8-36.2 103.9-179.9-20.9-36.2 50-86.7zm62.7 159.1L142.6 476.6h175.9l-20.3-35.1 191.7.2-163.5-282.6z"></path>
  </symbol>
  <symbol xmlns="http://www.w3.org/2000/svg" preserveAspectRatio="xMidYMid" viewBox="0 0 256 272" id="angular">
    <path d="M.1 45.522L125.908.697l129.196 44.028-20.919 166.45-108.277 59.966-106.583-59.169L.1 45.522z" fill="#E23237"></path>
    <path d="M255.104 44.725L125.908.697v270.444l108.277-59.866 20.919-166.55z" fill="#B52E31"></path>
    <path d="M126.107 32.274L47.714 206.693l29.285-.498 15.739-39.347h70.325l17.233 39.845 27.99.498-82.179-174.917zm.2 55.882l26.496 55.383h-49.806l23.31-55.383z" fill="#FFF"></path>
  </symbol>
  <symbol xmlns="http://www.w3.org/2000/svg" viewBox="0 0 256 199" id="azure">
    <title>path21</title>
    <path d="M118.432 187.698c32.89-5.81 60.055-10.618 60.367-10.684l.568-.12-31.052-36.935c-17.078-20.314-31.051-37.014-31.051-37.11 0-.182 32.063-88.477 32.243-88.792.06-.105 21.88 37.567 52.893 91.32 29.035 50.323 52.973 91.815 53.195 92.203l.405.707-98.684-.012-98.684-.013 59.8-10.564zM0 176.435c0-.052 14.631-25.451 32.514-56.442l32.514-56.347 37.891-31.799C123.76 14.358 140.867.027 140.935.001c.069-.026-.205.664-.609 1.534s-18.919 40.582-41.145 88.25l-40.41 86.67-29.386.037c-16.162.02-29.385-.005-29.385-.057z" fill="#0089D6"></path>
  </symbol>
  <symbol xmlns="http://www.w3.org/2000/svg" preserveAspectRatio="xMidYMid" viewBox="0 0 256 361" id="css3">
    <path d="M127.844 360.088L23.662 331.166.445 70.766h255.11l-23.241 260.36-104.47 28.962z" fill="#264DE4"></path>
    <path d="M212.417 314.547l19.86-222.49H128V337.95l84.417-23.403z" fill="#2965F1"></path>
    <path d="M53.669 188.636l2.862 31.937H128v-31.937H53.669zm-5.752-64.641l2.903 31.937H128v-31.937H47.917zM128 271.58l-.14.037-35.568-9.604-2.274-25.471h-32.06l4.474 50.146 65.421 18.16.147-.04V271.58z" fill="#EBEBEB"></path>
    <path d="M60.484 0h38.68v16.176H76.66v16.176h22.506v16.175H60.484V0zm46.417 0h38.681v14.066h-22.505v2.813h22.505v32.352h-38.68V34.46h22.505v-2.813H106.9V0zm46.418 0H192v14.066h-22.505v2.813H192v32.352h-38.681V34.46h22.505v-2.813H153.32V0z"></path>
    <path d="M202.127 188.636l5.765-64.641H127.89v31.937h45.002l-2.906 32.704H127.89v31.937h39.327l-3.708 41.42-35.62 9.614v33.226l65.473-18.145.48-5.396 7.506-84.08.779-8.576z" fill="#FFF"></path>
  </symbol>
  <symbol xmlns="http://www.w3.org/2000/svg" preserveAspectRatio="xMidYMid" viewBox="0 0 256 256" id="es6">
    <path fill="#F26522" d="M0 0h256v256H0z"></path>
    <path d="M105.536 159.959h39.157v-10.653h-27.064v-16.507h24.953v-10.653h-24.953v-15.452h27.064V96.041h-39.157v63.918zm91.462-17.371c0-12.765-.864-15.548-18.043-19.675-11.037-2.687-11.229-2.879-11.229-10.173 0-5.566 1.44-7.294 9.598-7.294 5.566 0 11.804.768 17.083 1.92l1.344-10.173c-6.335-1.44-13.053-2.112-18.62-2.112-16.219 0-21.497 5.759-21.497 17.371 0 13.533 2.111 16.508 17.563 19.963 11.517 2.495 11.709 3.07 11.709 10.173 0 6.142-1.44 7.966-10.174 7.966-6.334 0-12.092-1.152-18.042-2.976l-2.112 9.502c4.223 2.015 12.669 3.839 19.963 3.839 18.906 0 22.457-6.239 22.457-18.331zm22.266-23.801c0-9.79 4.703-11.71 16.027-11.71 2.016 0 6.239.289 9.022.865l.768-9.79c-2.88-.671-7.486-1.151-11.037-1.151-17.467 0-26.489 5.374-26.489 22.265v23.322c0 11.037 3.263 18.33 19.77 18.33 15.068 0 19.675-7.485 19.675-17.466v-4.607c0-11.037-4.703-15.836-16.315-15.836-4.127 0-8.062.576-11.421 1.728v-5.95zm9.597 14.3c4.223 0 6.43 1.44 6.43 6.046v4.703c0 4.894-1.92 7.006-7.965 7.006-6.047 0-8.062-1.728-8.062-7.006v-8.734c2.687-1.152 6.142-2.015 9.597-2.015z" fill="#FFF"></path>
  </symbol>
  <symbol xmlns="http://www.w3.org/2000/svg" preserveAspectRatio="xMidYMid" viewBox="0 0 256 256" id="git">
    <path d="M251.172 116.594L139.4 4.828c-6.433-6.437-16.873-6.437-23.314 0l-23.21 23.21 29.443 29.443c6.842-2.312 14.688-.761 20.142 4.693 5.48 5.489 7.02 13.402 4.652 20.266l28.375 28.376c6.865-2.365 14.786-.835 20.269 4.657 7.663 7.66 7.663 20.075 0 27.74-7.665 7.666-20.08 7.666-27.749 0-5.764-5.77-7.188-14.235-4.27-21.336l-26.462-26.462-.003 69.637a19.82 19.82 0 015.188 3.71c7.663 7.66 7.663 20.076 0 27.747-7.665 7.662-20.086 7.662-27.74 0-7.663-7.671-7.663-20.086 0-27.746a19.654 19.654 0 016.421-4.281V94.196a19.378 19.378 0 01-6.421-4.281c-5.806-5.798-7.202-14.317-4.227-21.446L81.47 39.442 4.83 116.077c-6.44 6.443-6.44 16.884 0 23.322l111.774 111.768c6.435 6.438 16.873 6.438 23.316 0l111.251-111.249c6.438-6.44 6.438-16.887 0-23.324" fill="#DE4C36"></path>
  </symbol>
  <symbol xmlns="http://www.w3.org/2000/svg" preserveAspectRatio="xMidYMid" viewBox="0 0 256 250" id="github">
    <path d="M128.001 0C57.317 0 0 57.307 0 128.001c0 56.554 36.676 104.535 87.535 121.46 6.397 1.185 8.746-2.777 8.746-6.158 0-3.052-.12-13.135-.174-23.83-35.61 7.742-43.124-15.103-43.124-15.103-5.823-14.795-14.213-18.73-14.213-18.73-11.613-7.944.876-7.78.876-7.78 12.853.902 19.621 13.19 19.621 13.19 11.417 19.568 29.945 13.911 37.249 10.64 1.149-8.272 4.466-13.92 8.127-17.116-28.431-3.236-58.318-14.212-58.318-63.258 0-13.975 5-25.394 13.188-34.358-1.329-3.224-5.71-16.242 1.24-33.874 0 0 10.749-3.44 35.21 13.121 10.21-2.836 21.16-4.258 32.038-4.307 10.878.049 21.837 1.47 32.066 4.307 24.431-16.56 35.165-13.12 35.165-13.12 6.967 17.63 2.584 30.65 1.255 33.873 8.207 8.964 13.173 20.383 13.173 34.358 0 49.163-29.944 59.988-58.447 63.157 4.591 3.972 8.682 11.762 8.682 23.704 0 17.126-.148 30.91-.148 35.126 0 3.407 2.304 7.398 8.792 6.14C219.37 232.5 256 184.537 256 128.002 256 57.307 198.691 0 128.001 0zm-80.06 182.34c-.282.636-1.283.827-2.194.39-.929-.417-1.45-1.284-1.15-1.922.276-.655 1.279-.838 2.205-.399.93.418 1.46 1.293 1.139 1.931zm6.296 5.618c-.61.566-1.804.303-2.614-.591-.837-.892-.994-2.086-.375-2.66.63-.566 1.787-.301 2.626.591.838.903 1 2.088.363 2.66zm4.32 7.188c-.785.545-2.067.034-2.86-1.104-.784-1.138-.784-2.503.017-3.05.795-.547 2.058-.055 2.861 1.075.782 1.157.782 2.522-.019 3.08zm7.304 8.325c-.701.774-2.196.566-3.29-.49-1.119-1.032-1.43-2.496-.726-3.27.71-.776 2.213-.558 3.315.49 1.11 1.03 1.45 2.505.701 3.27zm9.442 2.81c-.31 1.003-1.75 1.459-3.199 1.033-1.448-.439-2.395-1.613-2.103-2.626.301-1.01 1.747-1.484 3.207-1.028 1.446.436 2.396 1.602 2.095 2.622zm10.744 1.193c.036 1.055-1.193 1.93-2.715 1.95-1.53.034-2.769-.82-2.786-1.86 0-1.065 1.202-1.932 2.733-1.958 1.522-.03 2.768.818 2.768 1.868zm10.555-.405c.182 1.03-.875 2.088-2.387 2.37-1.485.271-2.861-.365-3.05-1.386-.184-1.056.893-2.114 2.376-2.387 1.514-.263 2.868.356 3.061 1.403z" fill="#161614"></path>
  </symbol>
  <symbol xmlns="http://www.w3.org/2000/svg" preserveAspectRatio="xMidYMid" viewBox="0 0 256 361" id="html5">
    <path d="M255.555 70.766l-23.241 260.36-104.47 28.962-104.182-28.922L.445 70.766h255.11z" fill="#E44D26"></path>
    <path d="M128 337.95l84.417-23.403 19.86-222.49H128V337.95z" fill="#F16529"></path>
    <path d="M82.82 155.932H128v-31.937H47.917l.764 8.568 7.85 88.01H128v-31.937H85.739l-2.919-32.704zm7.198 80.61h-32.06l4.474 50.146 65.421 18.16.147-.04V271.58l-.14.037-35.568-9.604-2.274-25.471z" fill="#EBEBEB"></path>
    <path d="M24.18 0h16.23v16.035h14.847V0h16.231v48.558h-16.23v-16.26H40.411v16.26h-16.23V0zm68.65 16.103H78.544V0h44.814v16.103h-14.295v32.455h-16.23V16.103h-.001zM130.47 0h16.923l10.41 17.062L168.203 0h16.93v48.558h-16.164V24.49l-11.166 17.265h-.28L146.35 24.49v24.068h-15.88V0zm62.74 0h16.235v32.508h22.824v16.05h-39.06V0z"></path>
    <path d="M127.89 220.573h39.327l-3.708 41.42-35.62 9.614v33.226l65.473-18.145.48-5.396 7.506-84.08.779-8.576H127.89v31.937zm0-64.719v.078h77.143l.64-7.178 1.456-16.191.763-8.568H127.89v31.86z" fill="#FFF"></path>
  </symbol>
  <symbol xmlns="http://www.w3.org/2000/svg" viewBox="8.738 -5.036 17.46 39.406" id="mongodb">
    <path d="M15.9.087l.854 1.604c.192.296.4.558.645.802a22.406 22.406 0 012.004 2.266c1.447 1.9 2.423 4.01 3.12 6.292.418 1.394.645 2.824.662 4.27.07 4.323-1.412 8.035-4.4 11.12a12.7 12.7 0 01-1.57 1.342c-.296 0-.436-.227-.558-.436a3.589 3.589 0 01-.436-1.255c-.105-.523-.174-1.046-.14-1.586v-.244C16.057 24.21 15.796.21 15.9.087z" fill="#599636"></path>
    <path d="M15.9.034c-.035-.07-.07-.017-.105.017.017.35-.105.662-.296.96-.21.296-.488.523-.767.767-1.55 1.342-2.77 2.963-3.747 4.776-1.3 2.44-1.97 5.055-2.16 7.808-.087.993.314 4.497.627 5.508.854 2.684 2.388 4.933 4.375 6.885.488.47 1.01.906 1.55 1.325.157 0 .174-.14.21-.244a4.78 4.78 0 00.157-.68l.35-2.614z" fill="#6cac48"></path>
    <path d="M16.754 28.845c.035-.4.227-.732.436-1.063-.21-.087-.366-.26-.488-.453a3.235 3.235 0 01-.26-.575c-.244-.732-.296-1.5-.366-2.248v-.453c-.087.07-.105.662-.105.75a17.37 17.37 0 01-.314 2.353c-.052.314-.087.627-.28.906 0 .035 0 .07.017.122.314.924.4 1.865.453 2.824v.35c0 .418-.017.33.33.47.14.052.296.07.436.174.105 0 .122-.087.122-.157l-.052-.575v-1.604c-.017-.28.035-.558.07-.82z" fill="#c2bfbf"></path>
  </symbol>
  <symbol xmlns="http://www.w3.org/2000/svg" preserveAspectRatio="xMidYMid" viewBox="0 0 256 289" id="nodejs">
    <path d="M128 288.464c-3.975 0-7.685-1.06-11.13-2.915l-35.247-20.936c-5.3-2.915-2.65-3.975-1.06-4.505 7.155-2.385 8.48-2.915 15.9-7.156.796-.53 1.856-.265 2.65.265l27.032 16.166c1.06.53 2.385.53 3.18 0l105.74-61.217c1.06-.53 1.59-1.59 1.59-2.915V83.08c0-1.325-.53-2.385-1.59-2.915l-105.74-60.953c-1.06-.53-2.385-.53-3.18 0L20.405 80.166c-1.06.53-1.59 1.855-1.59 2.915v122.17c0 1.06.53 2.385 1.59 2.915l28.887 16.695c15.636 7.95 25.44-1.325 25.44-10.6V93.68c0-1.59 1.326-3.18 3.181-3.18h13.516c1.59 0 3.18 1.325 3.18 3.18v120.58c0 20.936-11.396 33.126-31.272 33.126-6.095 0-10.865 0-24.38-6.625l-27.827-15.9C4.24 220.885 0 213.465 0 205.515V83.346C0 75.396 4.24 67.976 11.13 64L116.87 2.783c6.625-3.71 15.635-3.71 22.26 0L244.87 64C251.76 67.975 256 75.395 256 83.346v122.17c0 7.95-4.24 15.37-11.13 19.345L139.13 286.08c-3.445 1.59-7.42 2.385-11.13 2.385zm32.596-84.009c-46.377 0-55.917-21.2-55.917-39.221 0-1.59 1.325-3.18 3.18-3.18h13.78c1.59 0 2.916 1.06 2.916 2.65 2.12 14.045 8.215 20.936 36.306 20.936 22.261 0 31.802-5.035 31.802-16.96 0-6.891-2.65-11.926-37.367-15.372-28.886-2.915-46.907-9.275-46.907-32.33 0-21.467 18.02-34.187 48.232-34.187 33.921 0 50.617 11.66 52.737 37.101 0 .795-.265 1.59-.795 2.385-.53.53-1.325 1.06-2.12 1.06h-13.78c-1.326 0-2.65-1.06-2.916-2.385-3.18-14.575-11.395-19.345-33.126-19.345-24.38 0-27.296 8.48-27.296 14.84 0 7.686 3.445 10.07 36.306 14.31 32.597 4.24 47.967 10.336 47.967 33.127-.265 23.321-19.345 36.571-53.002 36.571z" fill="#539E43"></path>
  </symbol>
  <symbol xmlns="http://www.w3.org/2000/svg" preserveAspectRatio="xMidYMid" viewBox="0 0 256 256" id="npm">
    <path fill="#C12127" d="M0 256V0h256v256z"></path>
    <path fill="#FFF" d="M48 48h160v160h-32V80h-48v128H48z"></path>
  </symbol>
  <symbol xmlns="http://www.w3.org/2000/svg" preserveAspectRatio="xMidYMid" viewBox="0 0 256 264" id="postman">
    <g fill="none">
      <path fill="#F15A24" d="M45.985 256.455L0 258.05l23.573-23.967 22.414 22.374zM254.58 137.58c-8.543 66.613-69.475 113.676-136.077 105.123C51.889 234.158 4.826 173.228 13.37 106.62 21.919 40.008 82.838-7.06 149.457 1.494c66.61 8.542 113.684 69.478 105.124 136.084"></path>
      <path d="M164.982 87.532c7.99 8.494.104 28.577.104 28.577s-7.794 28.393-52.421 65.213l-8.33-8.177 56.65-57.899 1.095-1.478c1.507-2.456 2.755-26.401 2.902-26.236" fill="#999"></path>
      <path d="M164.982 87.532c7.99 8.494.104 28.577.104 28.577s-7.794 28.393-52.421 65.213l-8.33-8.177 56.65-57.899 1.095-1.478c1.507-2.456 2.755-26.401 2.902-26.236h0z" stroke="#FFF" stroke-width="1.918" stroke-linecap="round" stroke-linejoin="round"></path>
      <path d="M92.1 161.108l72.763-73.785c3.693 4.385 4.479 9.11 3.407 15.842-.722 4.663-8.775 13.981-8.775 13.981l-55.16 56" fill="#666"></path>
      <path d="M92.1 161.108l72.763-73.785c3.693 4.385 4.479 9.11 3.407 15.842-.722 4.663-8.775 13.981-8.775 13.981l-55.16 56" stroke="#FFF" stroke-width="1.201" stroke-linecap="round" stroke-linejoin="round"></path>
      <path d="M164.982 87.583L92.099 161.11l.147-.143-.027.011-18.083-17.818c37.708-46.905 62.089-55.65 62.089-55.65s15.872-6.196 27.195-1.388c.87.466 1.248.734 1.56 1.463" fill="#FF931E"></path>
      <path d="M164.982 87.583L92.099 161.11l.147-.143-.027.011-18.083-17.818c37.708-46.905 62.089-55.65 62.089-55.65s15.872-6.196 27.195-1.388c.87.466 1.248.734 1.56 1.463l.002-.002z" stroke="#FFF" stroke-width="1.918" stroke-linecap="round" stroke-linejoin="round"></path>
      <path d="M112.665 181.32c-17.388 14.32-39.641 36.816-69.889 52.506l6.728 28.762-28.516-28.087 71.11-73.393" fill="#999"></path>
      <path d="M112.665 181.32c-17.388 14.32-39.641 36.816-69.889 52.506l6.728 28.762-28.516-28.087 71.11-73.393" stroke="#FFF" stroke-width="1.918" stroke-linecap="round" stroke-linejoin="round"></path>
      <path fill="#F15A24" d="M74.623 143.4l17.665 17.596-40.81 8.84 22.754-26.753.393.318z"></path>
      <path stroke="#FFF" stroke-width="1.918" stroke-linecap="round" stroke-linejoin="round" d="M74.623 143.4l17.665 17.596-40.81 8.84 22.754-26.753.393.318z"></path>
      <path d="M158.024 66.246c-1.733 15.641 9.528 29.721 25.168 31.465 15.628 1.737 29.721-9.533 31.465-25.168 1.738-15.635-9.54-29.73-25.174-31.468-15.642-1.728-29.724 9.527-31.459 25.171" fill="#999"></path>
      <path d="M158.024 66.246c-1.733 15.641 9.528 29.721 25.168 31.465 15.628 1.737 29.721-9.533 31.465-25.168 1.738-15.635-9.54-29.73-25.174-31.468-15.642-1.728-29.724 9.527-31.459 25.171h0z" stroke="#FFF" stroke-width="1.918" stroke-linecap="round" stroke-linejoin="round"></path>
      <path d="M210.565 85.138c5.256-7.679 4.984-19.167 3.929-22.57-1.295-4.168-4.191-10.945-9.243-14.468l-26.714 24.606s20.53 22.059 21.065 22.132c.222.026 6.17-2.698 10.963-9.7" fill="#666"></path>
      <path d="M210.565 85.138c5.256-7.679 4.984-19.167 3.929-22.57-1.295-4.168-4.191-10.945-9.243-14.468l-26.714 24.606s20.53 22.059 21.065 22.132c.222.026 6.17-2.698 10.963-9.7h0zm-5.39-19.275s2.569 6.307-.69 11.214l.69-11.214z" stroke="#FFF" stroke-width="1.918" stroke-linecap="round" stroke-linejoin="round"></path>
      <path fill="#666" d="M104.964 173.156l-29.482 5.247 17.796-18.49"></path>
      <path d="M104.964 173.156l-29.482 5.247 17.796-18.49m-17.97-16.384l37.48 35.274" stroke="#FFF" stroke-width="1.918" stroke-linecap="round" stroke-linejoin="round"></path>
    </g>
  </symbol>
  <symbol xmlns="http://www.w3.org/2000/svg" preserveAspectRatio="xMidYMid" viewBox="0 0 256 256" id="prettier">
    <rect fill="#56B3B4" x="182.857" y="48.762" width="24.381" height="12.19" rx="5"></rect>
    <rect fill="#EA5E5E" y="243.81" width="73.143" height="12.19" rx="5"></rect>
    <rect fill="#BF85BF" x="146.286" y="146.286" width="48.762" height="12.19" rx="5"></rect>
    <rect fill="#EA5E5E" x="73.143" y="146.286" width="60.952" height="12.19" rx="5"></rect>
    <rect fill="#56B3B4" y="146.286" width="60.952" height="12.19" rx="5"></rect>
    <rect fill="#BF85BF" y="195.048" width="73.143" height="12.19" rx="5"></rect>
    <rect fill="#BF85BF" y="97.524" width="73.143" height="12.19" rx="5"></rect>
    <rect fill="#F7BA3E" x="60.952" y="24.381" width="134.095" height="12.19" rx="5"></rect>
    <rect fill="#EA5E5E" y="24.381" width="48.762" height="12.19" rx="5"></rect>
    <rect fill="#F7BA3E" x="48.762" y="219.429" width="24.381" height="12.19" rx="5"></rect>
    <rect fill="#56B3B4" x="48.762" y="73.143" width="24.381" height="12.19" rx="5"></rect>
    <rect fill="#56B3B4" y="219.429" width="36.571" height="12.19" rx="5"></rect>
    <rect fill="#F7BA3E" y="73.143" width="36.571" height="12.19" rx="5"></rect>
    <rect fill="#D0D4D8" opacity=".5" x="158.476" y="219.429" width="24.381" height="12.19" rx="5"></rect>
    <rect fill="#D0D4D8" opacity=".5" x="85.333" y="219.429" width="60.952" height="12.19" rx="5"></rect>
    <rect fill="#D0D4D8" opacity=".5" x="195.048" y="219.429" width="60.952" height="12.19" rx="5"></rect>
    <rect fill="#56B3B4" x="97.524" y="121.905" width="109.714" height="12.19" rx="5"></rect>
    <rect fill="#F7BA3E" x="36.571" y="121.905" width="48.762" height="12.19" rx="5"></rect>
    <rect fill="#EA5E5E" y="121.905" width="24.381" height="12.19" rx="5"></rect>
    <rect fill="#BF85BF" x="109.714" y="48.762" width="60.952" height="12.19" rx="5"></rect>
    <rect fill="#56B3B4" y="48.762" width="97.524" height="12.19" rx="5"></rect>
    <rect fill="#F7BA3E" x="36.571" y="170.667" width="121.905" height="12.19" rx="5"></rect>
    <rect fill="#BF85BF" y="170.667" width="24.381" height="12.19" rx="5"></rect>
    <rect fill="#EA5E5E" x="146.286" y="73.143" width="73.143" height="12.19" rx="5"></rect>
    <rect fill="#F7BA3E" x="146.286" y="97.524" width="73.143" height="12.19" rx="5"></rect>
    <rect fill="#56B3B4" width="158.476" height="12.19" rx="5"></rect>
    <rect fill="#D0D4D8" opacity=".5" x="170.667" width="85.333" height="12.19" rx="5"></rect>
    <rect fill="#D0D4D8" opacity=".5" x="170.667" y="170.667" width="36.571" height="12.19" rx="5"></rect>
    <rect fill="#D0D4D8" opacity=".5" x="219.429" y="170.667" width="36.571" height="12.19" rx="5"></rect>
    <rect fill="#D0D4D8" opacity=".5" x="207.238" y="146.286" width="48.762" height="12.19" rx="5"></rect>
    <rect fill="#D0D4D8" opacity=".5" x="207.238" y="24.381" width="48.762" height="12.19" rx="5"></rect>
    <rect fill="#D0D4D8" opacity=".5" x="219.429" y="121.905" width="36.571" height="12.19" rx="5"></rect>
    <rect fill="#D0D4D8" opacity=".5" x="219.429" y="48.762" width="36.571" height="12.19" rx="5"></rect>
    <rect fill="#D0D4D8" opacity=".5" x="231.619" y="73.143" width="24.381" height="12.19" rx="5"></rect>
    <rect fill="#D0D4D8" opacity=".5" x="231.619" y="97.524" width="24.381" height="12.19" rx="5"></rect>
    <rect fill="#D0D4D8" opacity=".5" x="134.095" y="195.048" width="121.905" height="12.19" rx="5"></rect>
    <rect fill="#D0D4D8" opacity=".5" x="85.333" y="195.048" width="36.571" height="12.19" rx="5"></rect>
    <rect fill="#D0D4D8" opacity=".5" x="182.857" y="243.81" width="73.143" height="12.19" rx="5"></rect>
    <rect fill="#D0D4D8" opacity=".5" x="85.333" y="243.81" width="85.333" height="12.19" rx="5"></rect>
    <rect fill="#D0D4D8" opacity=".5" x="85.333" y="73.143" width="48.762" height="12.19" rx="5"></rect>
    <rect fill="#D0D4D8" opacity=".5" x="85.333" y="97.524" width="48.762" height="12.19" rx="5"></rect>
  </symbol>
  <symbol xmlns="http://www.w3.org/2000/svg" preserveAspectRatio="xMidYMid" viewBox="0 0 256 255" id="python">
    <defs>
      <linearGradient x1="12.959%" y1="12.039%" x2="79.639%" y2="78.201%" id="a">
        <stop stop-color="#387EB8" offset="0%"></stop>
        <stop stop-color="#366994" offset="100%"></stop>
      </linearGradient>
      <linearGradient x1="19.128%" y1="20.579%" x2="90.742%" y2="88.429%" id="b">
        <stop stop-color="#FFE052" offset="0%"></stop>
        <stop stop-color="#FFC331" offset="100%"></stop>
      </linearGradient>
    </defs>
    <path d="M126.916.072c-64.832 0-60.784 28.115-60.784 28.115l.072 29.128h61.868v8.745H41.631S.145 61.355.145 126.77c0 65.417 36.21 63.097 36.21 63.097h21.61v-30.356s-1.165-36.21 35.632-36.21h61.362s34.475.557 34.475-33.319V33.97S194.67.072 126.916.072zM92.802 19.66a11.12 11.12 0 0111.13 11.13 11.12 11.12 0 01-11.13 11.13 11.12 11.12 0 01-11.13-11.13 11.12 11.12 0 0111.13-11.13z" fill="url(#a)"></path>
    <path d="M128.757 254.126c64.832 0 60.784-28.115 60.784-28.115l-.072-29.127H127.6v-8.745h86.441s41.486 4.705 41.486-60.712c0-65.416-36.21-63.096-36.21-63.096h-21.61v30.355s1.165 36.21-35.632 36.21h-61.362s-34.475-.557-34.475 33.32v56.013s-5.235 33.897 62.518 33.897zm34.114-19.586a11.12 11.12 0 01-11.13-11.13 11.12 11.12 0 0111.13-11.131 11.12 11.12 0 0111.13 11.13 11.12 11.12 0 01-11.13 11.13z" fill="url(#b)"></path>
  </symbol>
  <symbol xmlns="http://www.w3.org/2000/svg" preserveAspectRatio="xMidYMid" viewBox="0 0 256 228" id="react">
    <path d="M210.483 73.824a171.49 171.49 0 00-8.24-2.597c.465-1.9.893-3.777 1.273-5.621 6.238-30.281 2.16-54.676-11.769-62.708-13.355-7.7-35.196.329-57.254 19.526a171.23 171.23 0 00-6.375 5.848 155.866 155.866 0 00-4.241-3.917C100.759 3.829 77.587-4.822 63.673 3.233 50.33 10.957 46.379 33.89 51.995 62.588a170.974 170.974 0 001.892 8.48c-3.28.932-6.445 1.924-9.474 2.98C17.309 83.498 0 98.307 0 113.668c0 15.865 18.582 31.778 46.812 41.427a145.52 145.52 0 006.921 2.165 167.467 167.467 0 00-2.01 9.138c-5.354 28.2-1.173 50.591 12.134 58.266 13.744 7.926 36.812-.22 59.273-19.855a145.567 145.567 0 005.342-4.923 168.064 168.064 0 006.92 6.314c21.758 18.722 43.246 26.282 56.54 18.586 13.731-7.949 18.194-32.003 12.4-61.268a145.016 145.016 0 00-1.535-6.842c1.62-.48 3.21-.974 4.76-1.488 29.348-9.723 48.443-25.443 48.443-41.52 0-15.417-17.868-30.326-45.517-39.844zm-6.365 70.984c-1.4.463-2.836.91-4.3 1.345-3.24-10.257-7.612-21.163-12.963-32.432 5.106-11 9.31-21.767 12.459-31.957 2.619.758 5.16 1.557 7.61 2.4 23.69 8.156 38.14 20.213 38.14 29.504 0 9.896-15.606 22.743-40.946 31.14zm-10.514 20.834c2.562 12.94 2.927 24.64 1.23 33.787-1.524 8.219-4.59 13.698-8.382 15.893-8.067 4.67-25.32-1.4-43.927-17.412a156.726 156.726 0 01-6.437-5.87c7.214-7.889 14.423-17.06 21.459-27.246 12.376-1.098 24.068-2.894 34.671-5.345a134.17 134.17 0 011.386 6.193zM87.276 214.515c-7.882 2.783-14.16 2.863-17.955.675-8.075-4.657-11.432-22.636-6.853-46.752a156.923 156.923 0 011.869-8.499c10.486 2.32 22.093 3.988 34.498 4.994 7.084 9.967 14.501 19.128 21.976 27.15a134.668 134.668 0 01-4.877 4.492c-9.933 8.682-19.886 14.842-28.658 17.94zM50.35 144.747c-12.483-4.267-22.792-9.812-29.858-15.863-6.35-5.437-9.555-10.836-9.555-15.216 0-9.322 13.897-21.212 37.076-29.293 2.813-.98 5.757-1.905 8.812-2.773 3.204 10.42 7.406 21.315 12.477 32.332-5.137 11.18-9.399 22.249-12.634 32.792a134.718 134.718 0 01-6.318-1.979zm12.378-84.26c-4.811-24.587-1.616-43.134 6.425-47.789 8.564-4.958 27.502 2.111 47.463 19.835a144.318 144.318 0 013.841 3.545c-7.438 7.987-14.787 17.08-21.808 26.988-12.04 1.116-23.565 2.908-34.161 5.309a160.342 160.342 0 01-1.76-7.887zm110.427 27.268a347.8 347.8 0 00-7.785-12.803c8.168 1.033 15.994 2.404 23.343 4.08-2.206 7.072-4.956 14.465-8.193 22.045a381.151 381.151 0 00-7.365-13.322zm-45.032-43.861c5.044 5.465 10.096 11.566 15.065 18.186a322.04 322.04 0 00-30.257-.006c4.974-6.559 10.069-12.652 15.192-18.18zM82.802 87.83a323.167 323.167 0 00-7.227 13.238c-3.184-7.553-5.909-14.98-8.134-22.152 7.304-1.634 15.093-2.97 23.209-3.984a321.524 321.524 0 00-7.848 12.897zm8.081 65.352c-8.385-.936-16.291-2.203-23.593-3.793 2.26-7.3 5.045-14.885 8.298-22.6a321.187 321.187 0 007.257 13.246c2.594 4.48 5.28 8.868 8.038 13.147zm37.542 31.03c-5.184-5.592-10.354-11.779-15.403-18.433 4.902.192 9.899.29 14.978.29 5.218 0 10.376-.117 15.453-.343-4.985 6.774-10.018 12.97-15.028 18.486zm52.198-57.817c3.422 7.8 6.306 15.345 8.596 22.52-7.422 1.694-15.436 3.058-23.88 4.071a382.417 382.417 0 007.859-13.026 347.403 347.403 0 007.425-13.565zm-16.898 8.101a358.557 358.557 0 01-12.281 19.815 329.4 329.4 0 01-23.444.823c-7.967 0-15.716-.248-23.178-.732a310.202 310.202 0 01-12.513-19.846h.001a307.41 307.41 0 01-10.923-20.627 310.278 310.278 0 0110.89-20.637l-.001.001a307.318 307.318 0 0112.413-19.761c7.613-.576 15.42-.876 23.31-.876H128c7.926 0 15.743.303 23.354.883a329.357 329.357 0 0112.335 19.695 358.489 358.489 0 0111.036 20.54 329.472 329.472 0 01-11 20.722zm22.56-122.124c8.572 4.944 11.906 24.881 6.52 51.026-.344 1.668-.73 3.367-1.15 5.09-10.622-2.452-22.155-4.275-34.23-5.408-7.034-10.017-14.323-19.124-21.64-27.008a160.789 160.789 0 015.888-5.4c18.9-16.447 36.564-22.941 44.612-18.3zM128 90.808c12.625 0 22.86 10.235 22.86 22.86s-10.235 22.86-22.86 22.86-22.86-10.235-22.86-22.86 10.235-22.86 22.86-22.86z" fill="#00D8FF"></path>
  </symbol>
  <symbol xmlns="http://www.w3.org/2000/svg" preserveAspectRatio="xMidYMid" viewBox="0 0 256 308" id="svelte">
    <path d="M239.682 40.707C211.113-.182 154.69-12.301 113.895 13.69L42.247 59.356a82.198 82.198 0 00-37.135 55.056 86.566 86.566 0 008.536 55.576 82.425 82.425 0 00-12.296 30.719 87.596 87.596 0 0014.964 66.244c28.574 40.893 84.997 53.007 125.787 27.016l71.648-45.664a82.182 82.182 0 0037.135-55.057 86.601 86.601 0 00-8.53-55.577 82.409 82.409 0 0012.29-30.718 87.573 87.573 0 00-14.963-66.244" fill="#FF3E00"></path>
    <path d="M106.889 270.841c-23.102 6.007-47.497-3.036-61.103-22.648a52.685 52.685 0 01-9.003-39.85 49.978 49.978 0 011.713-6.693l1.35-4.115 3.671 2.697a92.447 92.447 0 0028.036 14.007l2.663.808-.245 2.659a16.067 16.067 0 002.89 10.656 17.143 17.143 0 0018.397 6.828 15.786 15.786 0 004.403-1.935l71.67-45.672a14.922 14.922 0 006.734-9.977 15.923 15.923 0 00-2.713-12.011 17.156 17.156 0 00-18.404-6.832 15.78 15.78 0 00-4.396 1.933l-27.35 17.434a52.298 52.298 0 01-14.553 6.391c-23.101 6.007-47.497-3.036-61.101-22.649a52.681 52.681 0 01-9.004-39.849 49.428 49.428 0 0122.34-33.114l71.664-45.677a52.218 52.218 0 0114.563-6.398c23.101-6.007 47.497 3.036 61.101 22.648a52.685 52.685 0 019.004 39.85 50.559 50.559 0 01-1.713 6.692l-1.35 4.116-3.67-2.693a92.373 92.373 0 00-28.037-14.013l-2.664-.809.246-2.658a16.099 16.099 0 00-2.89-10.656 17.143 17.143 0 00-18.398-6.828 15.786 15.786 0 00-4.402 1.935l-71.67 45.674a14.898 14.898 0 00-6.73 9.975 15.9 15.9 0 002.709 12.012 17.156 17.156 0 0018.404 6.832 15.841 15.841 0 004.402-1.935l27.345-17.427a52.147 52.147 0 0114.552-6.397c23.101-6.006 47.497 3.037 61.102 22.65a52.681 52.681 0 019.003 39.848 49.453 49.453 0 01-22.34 33.12l-71.664 45.673a52.218 52.218 0 01-14.563 6.398" fill="#FFF"></path>
  </symbol>
  <symbol xmlns="http://www.w3.org/2000/svg" preserveAspectRatio="xMidYMid" viewBox="0 0 256 256" id="typescript">
    <path fill="#007ACC" d="M0 128v128h256V0H0z"></path>
    <path d="M56.611 128.85l-.081 10.483h33.32v94.68h23.57v-94.68h33.32v-10.28c0-5.69-.122-10.444-.284-10.566-.122-.162-20.399-.244-44.983-.203l-44.739.122-.122 10.443zm149.956-10.742c6.501 1.626 11.459 4.51 16.01 9.224 2.357 2.52 5.851 7.112 6.136 8.209.08.325-11.053 7.802-17.798 11.987-.244.163-1.22-.894-2.317-2.52-3.291-4.794-6.745-6.867-12.028-7.232-7.76-.529-12.759 3.535-12.718 10.32 0 1.992.284 3.17 1.097 4.796 1.707 3.535 4.876 5.648 14.832 9.955 18.326 7.884 26.168 13.085 31.045 20.48 5.445 8.25 6.664 21.415 2.966 31.208-4.063 10.646-14.14 17.88-28.323 20.277-4.388.772-14.79.65-19.504-.203-10.28-1.829-20.033-6.908-26.047-13.572-2.357-2.601-6.949-9.387-6.664-9.875.122-.162 1.178-.812 2.356-1.503 1.138-.65 5.446-3.13 9.509-5.486l7.355-4.267 1.544 2.276c2.154 3.291 6.867 7.802 9.712 9.305 8.167 4.308 19.383 3.698 24.909-1.26 2.357-2.153 3.332-4.388 3.332-7.68 0-2.966-.366-4.266-1.91-6.5-1.99-2.845-6.054-5.243-17.595-10.24-13.206-5.69-18.895-9.225-24.096-14.833-3.007-3.25-5.852-8.452-7.03-12.8-.975-3.616-1.22-12.678-.447-16.335 2.723-12.76 12.353-21.658 26.25-24.3 4.51-.853 14.994-.528 19.424.57z" fill="#FFF"></path>
  </symbol>
  <symbol xmlns="http://www.w3.org/2000/svg" xmlns:xlink="http://www.w3.org/1999/xlink" preserveAspectRatio="xMidYMid" viewBox="0 0 256 254" id="vscode">
    <defs>
      <linearGradient x1="50%" y1="0%" x2="50%" y2="100%" id="c">
        <stop stop-color="#FFF" offset="0%"></stop>
        <stop stop-color="#FFF" stop-opacity="0" offset="100%"></stop>
      </linearGradient>
      <path d="M180.828 252.605a15.872 15.872 0 0012.65-.486l52.501-25.262a15.94 15.94 0 009.025-14.364V41.197a15.939 15.939 0 00-9.025-14.363l-52.5-25.263a15.877 15.877 0 00-18.115 3.084L74.857 96.35l-43.78-33.232a10.614 10.614 0 00-13.56.603L3.476 76.494c-4.63 4.211-4.635 11.495-.012 15.713l37.967 34.638-37.967 34.637c-4.623 4.219-4.618 11.502.012 15.714l14.041 12.772a10.614 10.614 0 0013.56.604l43.78-33.233 100.507 91.695a15.853 15.853 0 005.464 3.571zm10.464-183.649l-76.262 57.889 76.262 57.888V68.956z" id="a"></path>
    </defs>
    <mask id="b" fill="#fff">
      <use xlink:href="#a"></use>
    </mask>
    <path d="M246.135 26.873L193.593 1.575a15.885 15.885 0 00-18.123 3.08L3.466 161.482c-4.626 4.219-4.62 11.502.012 15.714l14.05 12.772a10.625 10.625 0 0013.569.604L238.229 33.436c6.949-5.271 16.93-.315 16.93 8.407v-.61a15.938 15.938 0 00-9.024-14.36z" fill="#0065A9" mask="url(#b)"></path>
    <path d="M246.135 226.816l-52.542 25.298a15.887 15.887 0 01-18.123-3.08L3.466 92.207c-4.626-4.218-4.62-11.502.012-15.713l14.05-12.773a10.625 10.625 0 0113.569-.603l207.132 157.135c6.949 5.271 16.93.315 16.93-8.408v.611a15.939 15.939 0 01-9.024 14.36z" fill="#007ACC" mask="url(#b)"></path>
    <path d="M193.428 252.134a15.892 15.892 0 01-18.125-3.083c5.881 5.88 15.938 1.715 15.938-6.603V11.273c0-8.318-10.057-12.483-15.938-6.602a15.892 15.892 0 0118.125-3.084l52.533 25.263a15.937 15.937 0 019.03 14.363V212.51c0 6.125-3.51 11.709-9.03 14.363l-52.533 25.262z" fill="#1F9CF0" mask="url(#b)"></path>
    <path d="M180.828 252.605a15.874 15.874 0 0012.65-.486l52.5-25.263a15.938 15.938 0 009.026-14.363V41.197a15.939 15.939 0 00-9.025-14.363L193.477 1.57a15.877 15.877 0 00-18.114 3.084L74.857 96.35l-43.78-33.232a10.614 10.614 0 00-13.56.603L3.476 76.494c-4.63 4.211-4.635 11.495-.012 15.713l37.967 34.638-37.967 34.637c-4.623 4.219-4.618 11.502.012 15.714l14.041 12.772a10.614 10.614 0 0013.56.604l43.78-33.233 100.506 91.695a15.857 15.857 0 005.465 3.571zm10.464-183.65l-76.262 57.89 76.262 57.888V68.956z" fill-opacity=".25" fill="url(#c)" mask="url(#b)"></path>
  </symbol>
  <symbol xmlns="http://www.w3.org/2000/svg" preserveAspectRatio="xMidYMid" viewBox="0 0 256 221" id="vue">
    <path d="M204.8 0H256L128 220.8 0 0h97.92L128 51.2 157.44 0h47.36z" fill="#41B883"></path>
    <path d="M0 0l128 220.8L256 0h-51.2L128 132.48 50.56 0H0z" fill="#41B883"></path>
    <path d="M50.56 0L128 133.12 204.8 0h-47.36L128 51.2 97.92 0H50.56z" fill="#35495E"></path>
  </symbol>
</svg>